<?xml version="1.0" encoding="utf-8"?>
<!-- Generator: Adobe Illustrator 22.1.0, SVG Export Plug-In . SVG Version: 6.00 Build 0)  -->
<svg version="1.1" id="Layer_1" xmlns="http://www.w3.org/2000/svg" xmlns:xlink="http://www.w3.org/1999/xlink" x="0px" y="0px"
	 viewBox="0 0 134.3 112.3" style="enable-background:new 0 0 134.3 112.3;" xml:space="preserve">
<style type="text/css">
	.st0{fill:url(#SVGID_1_);}
	.st1{fill:#DDA181;}
	.st2{fill:#F1C4AB;}
	.st3{fill:#8D173A;}
</style>
<title>boef</title>
<g id="Baggrund">
	<g id="Boef">

			<radialGradient id="SVGID_1_" cx="-161.8288" cy="311.384" r="42.9885" fx="-174.4764" fy="311.384" gradientTransform="matrix(1.4069 -0.307 0.1237 0.5667 258.669 -147.5242)" gradientUnits="userSpaceOnUse">
			<stop  offset="0" style="stop-color:#000000;stop-opacity:0.4"/>
			<stop  offset="1" style="stop-color:#000000;stop-opacity:0"/>
		</radialGradient>
		<path class="st0" d="M62.8,47.9c32.1-7,61.1,1.1,64.9,18.2c3.7,17.1-19.3,36.6-51.4,43.6s-61.1-1.1-64.9-18.2S30.7,54.9,62.8,47.9
			z"/>
		<path class="st1" d="M117.7,36.2c0-10.4-18.2-18.8-40.6-18.8c-14.9,0-28,3.7-35,9.3C35,33.9,34,42.9,33.6,49.8
			c-0.2,3.9-5.9,7.8-10.8,10.5c-8,2.8-13.1,7.2-12.7,11.5c0.3,2.8-0.4,12.5,0,15.8c0.7,6.3,13,10.1,27.6,8.6
			c3.5-0.4,7.1-1.1,10.5-2.1c4.3-0.8,9.8-1.9,15.9-3c15.2-2.8,35.2-14.5,45.8-22.5s7.8-16.5,7.8-16.5V36.2z"/>
		<path class="st2" d="M117.7,36.2c0-10.4-18.2-18.8-40.6-18.8c-14.9,0-28,3.7-35,9.3l0,0c-7.2,7.2-8.2,16.2-8.5,23.1
			c-0.2,3.9-5.9,7.8-10.8,10.5c-8,2.8-13.1,7.2-12.7,11.5c0.7,6.3,13,10.1,27.6,8.6c3.5-0.4,7-1.1,10.5-2.1c4.4-0.8,9.8-1.9,15.9-3
			c15.2-2.8,35.2-14.5,45.8-22.5S117.7,36.2,117.7,36.2z"/>
		<path class="st3" d="M114.4,36.8c0-9.4-16.7-17-37.3-17c-13.7,0-25.7,3.4-32.1,8.4l0,0c-6.6,6.5-7.5,14.6-7.8,20.9
			c-0.2,3.5-5.4,9.2-9.9,11.7C20,63.3,13,67,13.4,70.9c0.6,5.7,14.2,7.3,27.6,5.9c3.3-0.3,6.5-1,9.6-1.9c4-0.8,9-1.7,14.6-2.7
			c13.9-2.5,32.3-13.1,42-20.4S114.4,36.8,114.4,36.8z"/>
		<ellipse class="st2" cx="77" cy="34.2" rx="11.1" ry="5.5"/>
		<ellipse class="st1" cx="77" cy="34.2" rx="7.5" ry="3.7"/>
	</g>
</g>
</svg>
