<?xml version="1.0" encoding="utf-8"?>
<!-- Generator: Adobe Illustrator 22.1.0, SVG Export Plug-In . SVG Version: 6.00 Build 0)  -->
<svg version="1.1" id="Layer_1" xmlns="http://www.w3.org/2000/svg" xmlns:xlink="http://www.w3.org/1999/xlink" x="0px" y="0px"
	 viewBox="0 0 134.3 112.3" style="enable-background:new 0 0 134.3 112.3;" xml:space="preserve">
<style type="text/css">
	.st0{fill:url(#SVGID_1_);}
	.st1{fill:#D8CC60;}
	.st2{fill:#A9C358;}
	.st3{fill:#557C3E;}
	.st4{fill:#B9C55A;}
	.st5{fill:#557B3E;}
	.st6{fill:#FEFEFE;}
	.st7{fill:#547B3D;}
</style>
<title>brocoli</title>
<g id="Brokkoli_spil">
	<g>

			<radialGradient id="SVGID_1_" cx="-71.9444" cy="268.3622" r="42.9514" fx="-84.5821" fy="268.3622" gradientTransform="matrix(1.44 0 0 0.58 163.1 -74.9501)" gradientUnits="userSpaceOnUse">
			<stop  offset="0" style="stop-color:#000000;stop-opacity:0.4"/>
			<stop  offset="1" style="stop-color:#000000;stop-opacity:0"/>
		</radialGradient>
		<ellipse class="st0" cx="59.5" cy="80.7" rx="59.5" ry="31.6"/>
		<g>
			<g>
				<circle class="st1" cx="120.3" cy="24.8" r="12.5"/>
				<circle class="st2" cx="121.8" cy="39.6" r="12.5"/>
				<circle class="st3" cx="109.9" cy="13.4" r="12.5"/>
				<circle class="st2" cx="93" cy="12.5" r="12.5"/>
				<circle class="st3" cx="76.4" cy="15.4" r="12.5"/>
				<circle class="st2" cx="75.2" cy="33" r="12.5"/>
				<circle class="st1" cx="86.8" cy="30.4" r="9.8"/>
				<circle class="st2" cx="105.9" cy="66.4" r="12.5"/>
				<circle class="st2" cx="88.9" cy="60.8" r="12.5"/>
				<circle class="st1" cx="106" cy="52.4" r="12.5"/>
				<ellipse class="st3" cx="119.3" cy="59.9" rx="12.5" ry="12.5"/>
				<circle class="st3" cx="101.8" cy="35.4" r="14.7"/>
				<circle class="st4" cx="83.4" cy="48.8" r="12.5"/>
			</g>
			<g>
				<g>
					<path class="st5" d="M26,75.3c0-2.3,0-4.7,0-7c2.1-3.2,4.5-6.2,8.2-7.6c3.2-1.2,6.4-2.2,9.6-3.4c6.6-2.4,13.4-4.3,18.4-9.6
						c3.4,2.5,6.6,1.4,9.9-0.4c3.3,1.7,4.1,5.2,5.9,8c0,2.7,0,5.3,0,8c-3.4,0.6-5.7,3.5-9.2,4.2c-4.7,0.9-9.3,3.3-12,6.9
						C53,79.5,48,82.8,43,86.3c-2.7,0-5.3,0-8,0C30.7,83.8,28.1,79.8,26,75.3z"/>
					<path class="st6" d="M78,55.3c-1.7-2.8-2.6-6.4-5.9-8c-0.7-0.7-1.4-1.3-2.1-2c8,0,8,0,8,8C78,54,78,54.7,78,55.3z"/>
					<path class="st7" d="M70,45.3c0.7,0.7,1.4,1.3,2.1,2c-3.2,1.8-6.5,2.9-9.9,0.4c1.2-0.8,2.9-1,3.7-2.4
						C67.3,45.3,68.7,45.3,70,45.3z"/>
				</g>
				<g>
					<g>
						<path class="st3" d="M71,55.3c0-1.7,0-3.3,0-5c5.3-1.1,9.1-4.6,13-8c6,0,6,0,6,8c-4.4,2.8-9.9,3.5-14,7c-0.7,0-1.3,0-2,0
							C73.5,55.9,72.5,55.2,71,55.3z"/>
						<path class="st6" d="M71,55.3c1.5-0.1,2.5,0.6,3,2C72.7,57.1,70.4,58.4,71,55.3z"/>
					</g>
				</g>
				<g>
					<path class="st3" d="M71,61.3c0-1,0.2-2,0-3c-0.7-3.4,0.6-4.8,4-4c2.5,2.2,5.7,2.2,8.7,1.9c2.5-0.2,4.5,0.5,6.3,2.1
						c0,0.7-0.1,1.4,0,2c1.1,5.1-0.9,7.1-6,6C80.3,63.1,75.4,63,71,61.3z"/>
					<path class="st6" d="M75,54.3"/>
				</g>
				<g>
					<g>
						<path class="st3" d="M70,37.3c7,0,7,0,7,9c-1.7,1.1-2.6,3.2-2.7,4.8c-0.3,2.7-0.9,4.8-3.3,6.2c-4.2,0.9-5.9-0.8-5-5
							c2.2-2.5,2.2-5.7,1.9-8.7C67.7,41.2,68.5,39.2,70,37.3z"/>
					</g>
				</g>
			</g>
		</g>
	</g>
</g>
</svg>
