<svg id="Layer_1" data-name="Layer 1" xmlns="http://www.w3.org/2000/svg" xmlns:xlink="http://www.w3.org/1999/xlink" width="1200" height="400" viewBox="0 0 1200 400"><defs><style>.cls-1{fill:url(#radial-gradient);}.cls-2{fill:#d7cc61;}.cls-3{fill:#a9c358;}.cls-4{fill:#577c3e;}.cls-5{fill:#b9c559;}.cls-6{fill:none;}.cls-7{fill:url(#radial-gradient-2);}.cls-8{fill:url(#radial-gradient-3);}.cls-9{fill:url(#radial-gradient-4);}.cls-10{fill:url(#radial-gradient-5);}.cls-11{fill:url(#radial-gradient-6);}.cls-12{fill:url(#radial-gradient-7);}.cls-13{fill:url(#radial-gradient-8);}.cls-14{fill:url(#radial-gradient-9);}</style><radialGradient id="radial-gradient" cx="538.73" cy="107.95" fx="526.0831808946845" r="43" gradientTransform="translate(-683.38 62.39) scale(1.44 0.58)" gradientUnits="userSpaceOnUse"><stop offset="0" stop-color="#010101" stop-opacity="0.4"/><stop offset="1" stop-color="#010101" stop-opacity="0"/></radialGradient><radialGradient id="radial-gradient-2" cx="538.73" cy="369.48" fx="526.0831808946846" r="43" gradientTransform="translate(-683.38 111.76) scale(1.44 0.58)" xlink:href="#radial-gradient"/><radialGradient id="radial-gradient-3" cx="677.63" cy="369.48" fx="664.9765492250303" r="43" gradientTransform="translate(-683.38 111.76) scale(1.44 0.58)" xlink:href="#radial-gradient"/><radialGradient id="radial-gradient-4" cx="816.52" cy="369.48" fx="803.8699175553779" r="43" gradientTransform="translate(-683.38 111.76) scale(1.44 0.58)" xlink:href="#radial-gradient"/><radialGradient id="radial-gradient-5" cx="955.41" cy="369.48" fx="942.7632858857219" r="43" gradientTransform="translate(-683.38 111.76) scale(1.44 0.58)" xlink:href="#radial-gradient"/><radialGradient id="radial-gradient-6" cx="677.63" cy="107.95" fx="664.9765492250302" r="43" xlink:href="#radial-gradient"/><radialGradient id="radial-gradient-7" cx="816.52" cy="107.95" fx="803.8699175553778" r="43" xlink:href="#radial-gradient"/><radialGradient id="radial-gradient-8" cx="955.41" cy="107.95" fx="942.7632858857218" r="43" xlink:href="#radial-gradient"/><radialGradient id="radial-gradient-9" cx="1094.31" cy="107.95" fx="1081.6566542160656" r="43" xlink:href="#radial-gradient"/></defs><title>Brokkoli_spritesheet</title><ellipse class="cls-1" cx="92.37" cy="124.57" rx="59.5" ry="31.6"/><circle class="cls-2" cx="153.19" cy="68.66" r="12.5"/><circle class="cls-3" cx="154.63" cy="83.42" r="12.5"/><circle class="cls-4" cx="141.79" cy="57.23" r="12.5"/><circle class="cls-3" cx="125.89" cy="56.33" r="12.5"/><circle class="cls-4" cx="109.28" cy="59.25" r="12.5"/><circle class="cls-3" cx="108.11" cy="76.84" r="12.5"/><circle class="cls-2" cx="119.68" cy="74.23" r="9.75"/><circle class="cls-3" cx="138.79" cy="110.23" r="12.5"/><circle class="cls-3" cx="121.75" cy="104.67" r="12.5"/><circle class="cls-2" cx="138.9" cy="96.27" r="12.5"/><circle class="cls-4" cx="152.19" cy="103.67" r="12.5"/><circle class="cls-4" cx="134.69" cy="79.28" r="14.69"/><circle class="cls-5" cx="116.24" cy="92.61" r="12.5"/><path class="cls-4" d="M120.05,104.52a4.86,4.86,0,0,0-.34-3.63c-.6-1.47-3.17-2.27-5.76-1.77s-4.15,0-6.54-.89a19.64,19.64,0,0,1,1.77-1.88c1-.85,4-2.31,6.21-3.63s1.92-3.78.7-5.62A4.81,4.81,0,0,0,113,85.23c-1.53-.39-3.75,1.18-4.93,3.55a9.19,9.19,0,0,1-2.67,3.29,4.91,4.91,0,0,0-.49-.6c.49-1.48,1.65-4,2.46-6.06,1-2.41-.85-4.12-3-4.78a4.94,4.94,0,0,0-3.63.49c-1.46.66-2.22,3.26-1.68,5.82a9.37,9.37,0,0,1,.22,2.29,12.37,12.37,0,0,0-3.45.46c-2.41.67-7.78,6.49-11.21,8.57s-12.72,5.2-19.9,8.16-7.25,10.43-4.42,16.41c1.41,3,4,5.07,8.43,6.86s11.61-2,16.09-8.47,9.26-9.06,16.86-12.39c3.66-1.61,5.32-2.7,5.92-4.32a7.48,7.48,0,0,1,1,.15c1.29.31,4.19,1.76,6.57,2.74S119.3,106.62,120.05,104.52Z"/><rect class="cls-6" width="200" height="200"/><ellipse class="cls-7" cx="92.37" cy="324.57" rx="59.5" ry="31.6"/><circle class="cls-2" cx="153.19" cy="268.66" r="12.5"/><circle class="cls-3" cx="154.63" cy="283.42" r="12.5"/><circle class="cls-4" cx="141.79" cy="257.23" r="12.5"/><circle class="cls-3" cx="125.89" cy="256.33" r="12.5"/><circle class="cls-4" cx="109.28" cy="259.25" r="12.5"/><circle class="cls-3" cx="108.11" cy="276.84" r="12.5"/><circle class="cls-2" cx="119.68" cy="274.23" r="9.75"/><circle class="cls-3" cx="138.79" cy="310.23" r="12.5"/><circle class="cls-3" cx="121.75" cy="304.67" r="12.5"/><circle class="cls-2" cx="138.9" cy="296.27" r="12.5"/><circle class="cls-4" cx="152.19" cy="303.67" r="12.5"/><circle class="cls-4" cx="134.69" cy="279.28" r="14.69"/><circle class="cls-5" cx="116.24" cy="292.61" r="12.5"/><path class="cls-4" d="M120.05,304.52a4.86,4.86,0,0,0-.34-3.63c-.6-1.47-3.17-2.27-5.76-1.77s-4.15,0-6.54-.89a19.64,19.64,0,0,1,1.77-1.88c1-.85,4-2.31,6.21-3.63s1.92-3.78.7-5.62a4.81,4.81,0,0,0-3.12-1.87c-1.53-.39-3.75,1.18-4.93,3.55a9.19,9.19,0,0,1-2.67,3.29,4.91,4.91,0,0,0-.49-.6c.49-1.48,1.65-4,2.46-6.06,1-2.41-.85-4.12-3-4.78a4.94,4.94,0,0,0-3.63.49c-1.46.66-2.22,3.26-1.68,5.82a9.37,9.37,0,0,1,.22,2.29,12.37,12.37,0,0,0-3.45.46c-2.41.67-7.78,6.49-11.21,8.57s-12.72,5.2-19.9,8.16-7.25,10.43-4.42,16.41c1.41,3,4,5.07,8.43,6.86s11.61-1.95,16.09-8.47,9.26-9.06,16.86-12.39c3.66-1.61,5.32-2.7,5.92-4.32a7.48,7.48,0,0,1,1,.15c1.29.31,4.19,1.76,6.57,2.74S119.3,306.62,120.05,304.52Z"/><rect class="cls-6" y="200" width="200" height="200"/><ellipse class="cls-8" cx="292.37" cy="324.57" rx="59.5" ry="31.6"/><circle class="cls-2" cx="353.19" cy="268.66" r="12.5"/><circle class="cls-3" cx="367.13" cy="283.98" r="12.5"/><circle class="cls-4" cx="349.38" cy="252.09" r="12.5"/><circle class="cls-3" cx="326.4" cy="244.73" r="12.5"/><circle class="cls-4" cx="309.28" cy="259.25" r="12.5"/><circle class="cls-3" cx="295.61" cy="276.84" r="12.5"/><circle class="cls-2" cx="319.68" cy="274.23" r="9.75"/><circle class="cls-3" cx="338.79" cy="310.23" r="12.5"/><circle class="cls-3" cx="319.68" cy="317.17" r="12.5"/><circle class="cls-2" cx="338.9" cy="296.27" r="12.5"/><circle class="cls-4" cx="353.19" cy="317.17" r="12.5"/><circle class="cls-4" cx="334.69" cy="279.28" r="14.69"/><circle class="cls-5" cx="316.24" cy="292.61" r="12.5"/><path class="cls-4" d="M320.05,304.52a4.86,4.86,0,0,0-.34-3.63c-.6-1.47-3.17-2.27-5.76-1.77s-4.15,0-6.54-.89a19.64,19.64,0,0,1,1.77-1.88c1-.85,4-2.31,6.21-3.63s1.92-3.78.7-5.62a4.81,4.81,0,0,0-3.12-1.87c-1.53-.39-3.75,1.18-4.93,3.55a9.19,9.19,0,0,1-2.67,3.29,4.91,4.91,0,0,0-.49-.6c.49-1.48,1.65-4,2.46-6.06,1-2.41-.85-4.12-3-4.78a4.94,4.94,0,0,0-3.63.49c-1.46.66-2.22,3.26-1.68,5.82a9.37,9.37,0,0,1,.22,2.29,12.37,12.37,0,0,0-3.45.46c-2.41.67-7.78,6.49-11.21,8.57s-12.72,5.2-19.9,8.16-7.25,10.43-4.42,16.41c1.41,3,4.05,5.07,8.43,6.86s11.61-1.95,16.09-8.47,9.26-9.06,16.86-12.39c3.66-1.61,5.32-2.7,5.92-4.32a7.48,7.48,0,0,1,1,.15c1.29.31,4.19,1.76,6.57,2.74S319.3,306.62,320.05,304.52Z"/><rect class="cls-6" x="200" y="200" width="200" height="200"/><ellipse class="cls-9" cx="492.37" cy="324.57" rx="59.5" ry="31.6"/><circle class="cls-2" cx="553.19" cy="268.66" r="12.5"/><circle class="cls-3" cx="567.13" cy="283.98" r="12.5"/><circle class="cls-4" cx="549.38" cy="252.09" r="12.5"/><circle class="cls-3" cx="516.24" cy="236.31" r="12.5"/><circle class="cls-4" cx="479.87" cy="254.57" r="12.5"/><circle class="cls-3" cx="476.92" cy="281.16" r="12.5"/><circle class="cls-2" cx="519.68" cy="274.23" r="9.75"/><circle class="cls-3" cx="538.9" cy="330.14" r="12.5"/><circle class="cls-3" cx="519.68" cy="317.17" r="12.5"/><circle class="cls-2" cx="538.9" cy="296.27" r="12.5"/><circle class="cls-4" cx="572.14" cy="317.64" r="12.5"/><circle class="cls-4" cx="551.29" cy="283.98" r="14.69"/><circle class="cls-5" cx="507.18" cy="317.17" r="12.5"/><path class="cls-4" d="M520.05,304.52a4.86,4.86,0,0,0-.34-3.63c-.6-1.47-3.17-2.27-5.76-1.77s-4.15,0-6.54-.89a19.64,19.64,0,0,1,1.77-1.88c1-.85,4-2.31,6.21-3.63s1.92-3.78.7-5.62a4.81,4.81,0,0,0-3.12-1.87c-1.53-.39-3.75,1.18-4.93,3.55a9.19,9.19,0,0,1-2.67,3.29,4.91,4.91,0,0,0-.49-.6c.49-1.48,1.65-4,2.46-6.06,1-2.41-.85-4.12-3-4.78a4.94,4.94,0,0,0-3.63.49c-1.46.66-2.22,3.26-1.68,5.82a9.37,9.37,0,0,1,.22,2.29,12.37,12.37,0,0,0-3.45.46c-2.41.67-7.78,6.49-11.21,8.57s-12.72,5.2-19.9,8.16-7.25,10.43-4.42,16.41c1.41,3,4.05,5.07,8.43,6.86s11.61-1.95,16.09-8.47,9.26-9.06,16.86-12.39c3.66-1.61,5.32-2.7,5.92-4.32a7.48,7.48,0,0,1,1,.15c1.29.31,4.19,1.76,6.57,2.74S519.3,306.62,520.05,304.52Z"/><rect class="cls-6" x="400" y="200" width="200" height="200"/><ellipse class="cls-10" cx="692.37" cy="324.57" rx="59.5" ry="31.6"/><circle class="cls-2" cx="757.17" cy="242.07" r="12.5"/><circle class="cls-3" cx="767.13" cy="283.98" r="12.5"/><circle class="cls-4" cx="725" cy="251.99" r="12.5"/><circle class="cls-3" cx="700" cy="229.57" r="12.5"/><circle class="cls-4" cx="664.43" cy="251.99" r="12.5"/><circle class="cls-3" cx="658.58" cy="283.98" r="12.5"/><circle class="cls-2" cx="704.43" cy="274.23" r="9.75"/><circle class="cls-3" cx="738.9" cy="330.14" r="12.5"/><circle class="cls-3" cx="714.18" cy="342.64" r="12.5"/><circle class="cls-2" cx="744.67" cy="304.67" r="12.5"/><circle class="cls-4" cx="772.14" cy="317.64" r="12.5"/><circle class="cls-4" cx="734.37" cy="279.18" r="14.69"/><circle class="cls-5" cx="707.18" cy="317.17" r="12.5"/><path class="cls-4" d="M720.05,304.52a4.86,4.86,0,0,0-.34-3.63c-.6-1.47-3.17-2.27-5.76-1.77s-4.15,0-6.54-.89a19.64,19.64,0,0,1,1.77-1.88c1-.85,4-2.31,6.21-3.63s1.92-3.78.7-5.62a4.81,4.81,0,0,0-3.12-1.87c-1.53-.39-3.75,1.18-4.93,3.55a9.19,9.19,0,0,1-2.67,3.29,4.91,4.91,0,0,0-.49-.6c.49-1.48,1.65-4,2.46-6.06.95-2.41-.85-4.12-3-4.78a4.94,4.94,0,0,0-3.63.49c-1.46.66-2.22,3.26-1.68,5.82a9.37,9.37,0,0,1,.22,2.29,12.37,12.37,0,0,0-3.45.46c-2.41.67-7.78,6.49-11.21,8.57s-12.72,5.2-19.9,8.16-7.25,10.43-4.42,16.41c1.41,3,4.05,5.07,8.43,6.86s11.61-1.95,16.09-8.47,9.26-9.06,16.86-12.39c3.66-1.61,5.32-2.7,5.92-4.32a7.48,7.48,0,0,1,1,.15c1.29.31,4.19,1.76,6.57,2.74S719.3,306.62,720.05,304.52Z"/><rect class="cls-6" x="600" y="200" width="200" height="200"/><circle class="cls-2" cx="957.17" cy="242.07" r="12.5"/><circle class="cls-3" cx="900" cy="229.57" r="12.5"/><circle class="cls-4" cx="864.43" cy="251.99" r="12.5"/><circle class="cls-3" cx="858.58" cy="283.98" r="12.5"/><circle class="cls-2" cx="904.43" cy="292.17" r="9.75"/><circle class="cls-3" cx="938.9" cy="330.14" r="12.5"/><circle class="cls-3" cx="887.5" cy="342.64" r="12.5"/><circle class="cls-4" cx="972.14" cy="317.64" r="12.5"/><circle class="cls-4" cx="934.37" cy="279.18" r="14.69"/><rect class="cls-6" x="800" y="200" width="200" height="200"/><ellipse class="cls-11" cx="292.37" cy="124.57" rx="59.5" ry="31.6"/><circle class="cls-2" cx="353.19" cy="68.66" r="12.5"/><circle class="cls-3" cx="354.63" cy="83.42" r="12.5"/><circle class="cls-4" cx="341.79" cy="57.23" r="12.5"/><circle class="cls-3" cx="325.89" cy="56.33" r="12.5"/><circle class="cls-4" cx="309.28" cy="59.25" r="12.5"/><circle class="cls-3" cx="308.11" cy="76.84" r="12.5"/><circle class="cls-2" cx="319.68" cy="74.23" r="9.75"/><circle class="cls-3" cx="338.79" cy="110.23" r="12.5"/><circle class="cls-3" cx="321.75" cy="104.67" r="12.5"/><circle class="cls-2" cx="338.9" cy="96.27" r="12.5"/><circle class="cls-4" cx="334.69" cy="79.28" r="14.69"/><circle class="cls-5" cx="316.24" cy="92.61" r="12.5"/><path class="cls-4" d="M320.05,104.52a4.86,4.86,0,0,0-.34-3.63c-.6-1.47-3.17-2.27-5.76-1.77s-4.15,0-6.54-.89a19.64,19.64,0,0,1,1.77-1.88c1-.85,4-2.31,6.21-3.63s1.92-3.78.7-5.62A4.81,4.81,0,0,0,313,85.23c-1.53-.39-3.75,1.18-4.93,3.55a9.19,9.19,0,0,1-2.67,3.29,4.91,4.91,0,0,0-.49-.6c.49-1.48,1.65-4,2.46-6.06,1-2.41-.85-4.12-3-4.78a4.94,4.94,0,0,0-3.63.49c-1.46.66-2.22,3.26-1.68,5.82a9.37,9.37,0,0,1,.22,2.29,12.37,12.37,0,0,0-3.45.46c-2.41.67-7.78,6.49-11.21,8.57s-12.72,5.2-19.9,8.16-7.25,10.43-4.42,16.41c1.41,3,4.05,5.07,8.43,6.86s11.61-2,16.09-8.47,9.26-9.06,16.86-12.39c3.66-1.61,5.32-2.7,5.92-4.32a7.48,7.48,0,0,1,1,.15c1.29.31,4.19,1.76,6.57,2.74S319.3,106.62,320.05,104.52Z"/><rect class="cls-6" x="200" width="200" height="200"/><ellipse class="cls-12" cx="492.37" cy="124.57" rx="59.5" ry="31.6"/><circle class="cls-2" cx="553.19" cy="68.66" r="12.5"/><circle class="cls-4" cx="541.79" cy="57.23" r="12.5"/><circle class="cls-3" cx="525.89" cy="56.33" r="12.5"/><circle class="cls-4" cx="509.28" cy="59.25" r="12.5"/><circle class="cls-3" cx="508.11" cy="76.84" r="12.5"/><circle class="cls-2" cx="519.68" cy="74.23" r="9.75"/><circle class="cls-3" cx="538.79" cy="110.23" r="12.5"/><circle class="cls-3" cx="521.75" cy="104.67" r="12.5"/><circle class="cls-2" cx="538.9" cy="96.27" r="12.5"/><circle class="cls-4" cx="534.69" cy="79.28" r="14.69"/><circle class="cls-5" cx="516.24" cy="92.61" r="12.5"/><path class="cls-4" d="M520.05,104.52a4.86,4.86,0,0,0-.34-3.63c-.6-1.47-3.17-2.27-5.76-1.77s-4.15,0-6.54-.89a19.64,19.64,0,0,1,1.77-1.88c1-.85,4-2.31,6.21-3.63s1.92-3.78.7-5.62A4.81,4.81,0,0,0,513,85.23c-1.53-.39-3.75,1.18-4.93,3.55a9.19,9.19,0,0,1-2.67,3.29,4.91,4.91,0,0,0-.49-.6c.49-1.48,1.65-4,2.46-6.06,1-2.41-.85-4.12-3-4.78a4.94,4.94,0,0,0-3.63.49c-1.46.66-2.22,3.26-1.68,5.82a9.37,9.37,0,0,1,.22,2.29,12.37,12.37,0,0,0-3.45.46c-2.41.67-7.78,6.49-11.21,8.57s-12.72,5.2-19.9,8.16-7.25,10.43-4.42,16.41c1.41,3,4.05,5.07,8.43,6.86s11.61-2,16.09-8.47,9.26-9.06,16.86-12.39c3.66-1.61,5.32-2.7,5.92-4.32a7.48,7.48,0,0,1,1,.15c1.29.31,4.19,1.76,6.57,2.74S519.3,106.62,520.05,104.52Z"/><rect class="cls-6" x="400" width="200" height="200"/><ellipse class="cls-13" cx="692.37" cy="124.57" rx="59.5" ry="31.6"/><circle class="cls-2" cx="753.19" cy="68.66" r="12.5"/><circle class="cls-4" cx="741.79" cy="57.23" r="12.5"/><circle class="cls-4" cx="709.28" cy="59.25" r="12.5"/><circle class="cls-3" cx="708.11" cy="76.84" r="12.5"/><circle class="cls-2" cx="719.68" cy="74.23" r="9.75"/><circle class="cls-3" cx="721.75" cy="104.67" r="12.5"/><circle class="cls-4" cx="734.69" cy="79.28" r="14.69"/><circle class="cls-5" cx="716.24" cy="92.61" r="12.5"/><path class="cls-4" d="M720.05,104.52a4.86,4.86,0,0,0-.34-3.63c-.6-1.47-3.17-2.27-5.76-1.77s-4.15,0-6.54-.89a19.64,19.64,0,0,1,1.77-1.88c1-.85,4-2.31,6.21-3.63s1.92-3.78.7-5.62A4.81,4.81,0,0,0,713,85.23c-1.53-.39-3.75,1.18-4.93,3.55a9.19,9.19,0,0,1-2.67,3.29,4.91,4.91,0,0,0-.49-.6c.49-1.48,1.65-4,2.46-6.06.95-2.41-.85-4.12-3-4.78a4.94,4.94,0,0,0-3.63.49c-1.46.66-2.22,3.26-1.68,5.82a9.37,9.37,0,0,1,.22,2.29,12.37,12.37,0,0,0-3.45.46c-2.41.67-7.78,6.49-11.21,8.57s-12.72,5.2-19.9,8.16-7.25,10.43-4.42,16.41c1.41,3,4.05,5.07,8.43,6.86s11.61-2,16.09-8.47,9.26-9.06,16.86-12.39c3.66-1.61,5.32-2.7,5.92-4.32a7.48,7.48,0,0,1,1,.15c1.29.31,4.19,1.76,6.57,2.74S719.3,106.62,720.05,104.52Z"/><rect class="cls-6" x="600" width="200" height="200"/><ellipse class="cls-14" cx="892.37" cy="124.57" rx="59.5" ry="31.6"/><circle class="cls-4" cx="941.79" cy="57.23" r="12.5"/><circle class="cls-4" cx="909.28" cy="59.25" r="12.5"/><circle class="cls-2" cx="919.68" cy="74.23" r="9.75"/><circle class="cls-3" cx="921.75" cy="104.67" r="12.5"/><circle class="cls-4" cx="934.69" cy="79.28" r="14.69"/><circle class="cls-5" cx="916.24" cy="92.61" r="12.5"/><path class="cls-4" d="M920.05,104.52a4.86,4.86,0,0,0-.34-3.63c-.6-1.47-3.17-2.27-5.76-1.77s-4.15,0-6.54-.89a19.64,19.64,0,0,1,1.77-1.88c1-.85,4-2.31,6.21-3.63s1.92-3.78.7-5.62A4.81,4.81,0,0,0,913,85.23c-1.53-.39-3.75,1.18-4.93,3.55a9.19,9.19,0,0,1-2.67,3.29,4.91,4.91,0,0,0-.49-.6c.49-1.48,1.65-4,2.46-6.06.95-2.41-.85-4.12-3-4.78a4.94,4.94,0,0,0-3.63.49c-1.46.66-2.22,3.26-1.68,5.82a9.37,9.37,0,0,1,.22,2.29,12.37,12.37,0,0,0-3.45.46c-2.41.67-7.78,6.49-11.21,8.57s-12.72,5.2-19.9,8.16-7.25,10.43-4.42,16.41c1.41,3,4.05,5.07,8.43,6.86s11.61-2,16.09-8.47,9.26-9.06,16.86-12.39c3.66-1.61,5.32-2.7,5.92-4.32a7.48,7.48,0,0,1,1,.15c1.29.31,4.19,1.76,6.57,2.74S919.3,106.62,920.05,104.52Z"/><rect class="cls-6" x="800" width="200" height="200"/></svg>
