<?xml version="1.0" encoding="utf-8"?>
<!-- Generator: Adobe Illustrator 22.1.0, SVG Export Plug-In . SVG Version: 6.00 Build 0)  -->
<svg version="1.1" xmlns="http://www.w3.org/2000/svg" xmlns:xlink="http://www.w3.org/1999/xlink" x="0px" y="0px"
	 viewBox="0 0 898.3 589.5" style="enable-background:new 0 0 898.3 589.5;" xml:space="preserve">
<style type="text/css">
	.st0{fill:#8DBF3D;}
	.st1{fill:url(#SVGID_1_);}
	.st2{fill:url(#SVGID_2_);}
	.st3{fill:#DDA181;}
	.st4{fill:#F1C4AB;}
	.st5{fill:#8D173A;}
	.st6{opacity:0.29;fill:#231F20;}
	.st7{opacity:0.29;}
	.st8{fill:#231F20;}
	.st9{opacity:0.44;fill:url(#SVGID_3_);}
	.st10{fill:#BDBEC0;}
	.st11{fill:#D9E2E6;}
	.st12{fill:#001300;}
	.st13{fill:url(#SVGID_4_);}
	.st14{opacity:0.43;fill:#FFFFFF;}
	.st15{fill:url(#SVGID_5_);}
	.st16{fill:url(#SVGID_6_);}
	.st17{fill:url(#SVGID_7_);}
	.st18{fill:#3B525A;}
	.st19{fill:#6D8F9B;}
	.st20{opacity:0.13;}
	.st21{fill:#5B605A;}
	.st22{fill:#FFFFFF;}
	.st23{fill:#B2B2B2;}
	.st24{opacity:0.44;fill:none;stroke:#008E00;stroke-width:5;stroke-miterlimit:10;}
	.st25{fill:#344331;}
	.st26{opacity:0.44;fill:#66C76D;}
	.st27{opacity:0.13;fill:#5B605A;}
	.st28{opacity:0.13;fill:url(#SVGID_8_);}
	.st29{opacity:0.13;fill:url(#SVGID_9_);}
	.st30{fill:#D8CC60;}
	.st31{fill:#A9C358;}
	.st32{fill:#557C3E;}
	.st33{fill:#B9C55A;}
	.st34{fill:#17FFBD;}
	.st35{fill:url(#SVGID_10_);}
	.st36{fill:url(#SVGID_11_);}
	.st37{fill:#127486;}
	.st38{fill:url(#SVGID_12_);}
	.st39{fill:url(#SVGID_13_);}
	.st40{opacity:0.86;stroke:#FFFFFF;stroke-miterlimit:10;}
	.st41{fill:url(#SVGID_14_);}
</style>
<g id="Baggrund">
	<g id="Boef">
	</g>
	<g id="Prut">
	</g>
</g>
<g id="Ko">
</g>
<g id="Jordklode">
</g>
<g id="Taeppe">
</g>
<g id="Blade_x5F_graes_x5F_skyer">
</g>
<g id="Forside_x5F_tekst">
</g>
<g id="Brokkoli">
</g>
<g id="Pølse">
</g>
<g id="Boef_x5F_figur">
</g>
<g id="Playknap">
</g>
<g id="Polse_x5F_spil">
</g>
<g id="Brokkoli_x5F_spil">
</g>
<g id="Game_x5F_over">
	<path class="st40" d="M885.8,589H12.5c-6.6,0-12-5.4-12-12V12.5c0-6.6,5.4-12,12-12h873.3c6.6,0,12,5.4,12,12V577
		C897.8,583.6,892.4,589,885.8,589z"/>
	<g>
		<path class="st22" d="M210.5,162.6c0-5.5,0.3-13.6,0.7-18c0,0,0,0,1.5-3.3c1.5-3.3,3.5-6,5.9-8.2c2.4-2.1,5.1-3.7,8.1-4.7
			c3-1.1,6.1-1.6,9.1-1.6c3.1,0,6.1,0.5,9.1,1.6c3,1.1,5.8,2.7,8.2,4.7c2.4,2.2,4.3,4.9,5.8,8.2c1.5,3.3,1.5,3.3,1.5,3.3
			c0.4,4.4,0.7,9.2,0.7,10.7c0,1.5-3.4,2.7-7.6,2.7s-7.6-1.2-7.6-2.7c0-1.5-0.5-5.5-1-9c0,0,0,0-2-1.7c-2-1.7-4.4-2.6-7.2-2.6
			c-2.8,0-5.2,0.9-7.2,2.6c-2,1.7-2,1.7-2,1.7c-0.6,3.5-1,10.9-1,16.4v35.8c0,5.5,0.5,12.9,1,16.4c0,0,0,0,2,1.7
			c2,1.7,4.4,2.6,7.2,2.6c2.8,0,5.2-0.9,7.2-2.6c2-1.7,2-1.7,2-1.7c0.6-3.5,1-10.8,1-16.3s-2.7-9.9-6-9.9s-6-3-6-6.7s4.5-6.7,10-6.7
			h7.1c5.5,0,10,4.5,10,10v13.2c0,5.5-0.3,13.7-0.7,18.3c0,0,0,0-1.5,3.2c-1.5,3.2-3.4,5.8-5.8,7.9c-2.5,2.2-5.2,3.8-8.2,4.9
			c-3,1.1-6.1,1.6-9.1,1.6c-3.1,0-6.1-0.5-9.1-1.6c-3-1.1-5.7-2.7-8.1-4.9c-2.5-2.1-4.5-4.7-5.9-7.9c-1.5-3.2-1.5-3.2-1.5-3.2
			c-0.4-4.5-0.7-12.8-0.7-18.3V162.6z"/>
		<path class="st22" d="M275.3,233.3c-4.2,0-6.6-4.4-5.4-9.8l19.2-86.1c1.2-5.4,5-9.8,8.5-9.8s7.3,4.4,8.5,9.8l19.2,86.1
			c1.2,5.4-1.2,9.8-5.4,9.8s-8.4-4.4-9.5-9.8l-0.6-3.1c-1.1-5.4-6.4-9.8-11.9-9.8h-0.6c-5.5,0-10.9,4.4-11.9,9.8l-0.6,3.1
			C283.8,228.9,279.5,233.3,275.3,233.3z M297.6,196.4c4.2,0,6.7-4.4,5.7-9.8l-3.6-18.6c-1-5.4-2-9.8-2.1-9.8s-1,4.4-2.1,9.8
			l-3.6,18.6C290.9,192,293.4,196.4,297.6,196.4z"/>
		<path class="st22" d="M342.5,233.3c-4.2,0-7.6-4.5-7.6-10v-85.6c0-5.5,3.3-10,7.3-10s8.7,4.3,10.6,9.4l12.9,37
			c1.8,5.2,3.3,9.4,3.4,9.4s1.6-4.3,3.4-9.5l12.8-37c1.8-5.2,6.6-9.5,10.6-9.5s7.3,4.5,7.3,10v85.6c0,5.5-3.4,10-7.6,10
			s-7.6-4.5-7.6-10v-44.2c0-5.5-0.1-10-0.1-10s-1.6,4.3-3.3,9.5l-8.7,26.4c-1.7,5.2-4.8,9.5-6.9,9.5s-5.2-4.3-6.9-9.5l-8.6-26.4
			c-1.7-5.2-3.2-9.5-3.3-9.5s-0.1,4.5-0.1,10v44.2C350.1,228.8,346.7,233.3,342.5,233.3z"/>
		<path class="st22" d="M427.5,233.3c-5.5,0-10-4.5-10-10v-85.6c0-5.5,4.5-10,10-10h25.1c5.5,0,10,3.2,10,7.1s-4.5,7.1-10,7.1h-10
			c-5.5,0-10,4.5-10,10v11c0,5.5,4.5,10,10,10h6.1c5.5,0,10,3.2,10,7.1s-4.5,7.1-10,7.1h-6.1c-5.5,0-10,4.5-10,10v11
			c0,5.5,4.5,10,10,10h10c5.5,0,10,3.4,10,7.6c0,4.2-4.5,7.6-10,7.6H427.5z"/>
		<path class="st22" d="M499,162.6c0-5.5,0.3-13.6,0.7-18c0,0,0,0,1.5-3.3c1.5-3.3,3.5-6,5.9-8.2c2.4-2.1,5.1-3.7,8.1-4.7
			c3-1.1,6.1-1.6,9.1-1.6c3.1,0,6.1,0.5,9.1,1.6c3,1.1,5.8,2.7,8.2,4.7c2.4,2.2,4.3,4.9,5.8,8.2c1.5,3.3,1.5,3.3,1.5,3.3
			c0.4,4.4,0.7,12.5,0.7,18v35.8c0,5.5-0.3,13.7-0.7,18.3c0,0,0,0-1.5,3.2c-1.5,3.2-3.4,5.8-5.8,7.9c-2.5,2.2-5.2,3.8-8.2,4.9
			c-3,1.1-6.1,1.6-9.1,1.6c-3.1,0-6.1-0.5-9.1-1.6c-3-1.1-5.7-2.7-8.1-4.9c-2.5-2.1-4.5-4.7-5.9-7.9c-1.5-3.2-1.5-3.2-1.5-3.2
			c-0.4-4.5-0.7-12.8-0.7-18.3V162.6z M514.2,198.4c0,5.5,0.5,12.9,1,16.4c0,0,0,0,2,1.7c2,1.7,4.4,2.6,7.2,2.6
			c2.8,0,5.2-0.9,7.2-2.6c2-1.7,2-1.7,2-1.7c0.6-3.5,1-10.9,1-16.4v-35.8c0-5.5-0.5-12.9-1-16.4c0,0,0,0-2-1.7
			c-2-1.7-4.4-2.6-7.2-2.6c-2.8,0-5.2,0.9-7.2,2.6c-2,1.7-2,1.7-2,1.7c-0.6,3.5-1,10.9-1,16.4V198.4z"/>
		<path class="st22" d="M603.8,127.7c4.4,0,7.1,4.4,6,9.8l-17.6,86c-1.1,5.4-5,9.8-8.7,9.8c-3.7,0-7.6-4.4-8.7-9.8l-17.5-86
			c-1.1-5.4,1.6-9.8,6-9.8c4.4,0,8.7,4.4,9.6,9.9l8.8,54c0.9,5.4,1.7,9.9,1.8,9.9c0.1,0,0.9-4.4,1.8-9.9l8.9-54
			C595,132.1,599.4,127.7,603.8,127.7z"/>
		<path class="st22" d="M630.9,233.3c-5.5,0-10-4.5-10-10v-85.6c0-5.5,4.5-10,10-10H656c5.5,0,10,3.2,10,7.1s-4.5,7.1-10,7.1h-10
			c-5.5,0-10,4.5-10,10v11c0,5.5,4.5,10,10,10h6.1c5.5,0,10,3.2,10,7.1s-4.5,7.1-10,7.1H646c-5.5,0-10,4.5-10,10v11
			c0,5.5,4.5,10,10,10h10c5.5,0,10,3.4,10,7.6c0,4.2-4.5,7.6-10,7.6H630.9z"/>
		<path class="st22" d="M683.3,233.3c-4.2,0-7.6-4.5-7.6-10v-85.6c0-5.5,4.5-10,10-10h4.3c5.5,0,14.2,1.6,19.3,3.6
			c0,0,17.4,6.7,17.4,27.4c0,6.2-1,11.5-2.9,15.9c-1.9,4.4-2.2,4.5-2.2,4.5c-4.4,3.3-6.6,10.3-4.8,15.5l9.9,29.3
			c1.8,5.2-0.4,9.5-4.8,9.5c-4.4,0-9.4-4.3-11-9.5l-8.1-26c-1.6-5.2-5-9.5-7.5-9.5c-2.5,0-4.5,4.5-4.5,10v25.1
			C690.9,228.8,687.5,233.3,683.3,233.3z M694.8,141.9c-2.2,0-3.9,4.5-3.9,10v12.9c0,5.5,1.9,10,4.3,10c2.4,0,6.5-0.2,9.1-0.4
			c0,0,0,0,1.6-0.7c1.6-0.7,2.8-1.8,3.7-3.2c0.8-1.4,1.3-3.1,1.6-5.1c0.3-2,0.4-4.4,0.4-7s-0.1-5-0.4-7c-0.3-2-0.3-2-0.3-2
			c-0.8-1.8-2.7-4.2-4.2-5.3C705.2,142.9,697,141.9,694.8,141.9z"/>
	</g>
	<g>
		<circle class="st37" cx="442.8" cy="372.2" r="66"/>
		<radialGradient id="SVGID_1_" cx="438.5269" cy="369.383" r="65.9967" gradientUnits="userSpaceOnUse">
			<stop  offset="0.1045" style="stop-color:#00ADC2"/>
			<stop  offset="1" style="stop-color:#068496"/>
		</radialGradient>
		<circle class="st1" cx="438.5" cy="369.4" r="66"/>
	</g>
	<g>
		<path class="st37" d="M485.5,371.2c-1.6-24.3-21.9-43.2-45.4-42.1l-2.5,0.1l0.9,13.9l2.5-0.1c16-0.7,29.9,12.2,31,28.9
			c0.5,8.3-2.1,16.2-7.5,22.2c-5.1,5.7-12,9-19.5,9.3c-16,0.7-29.9-12.2-31-28.9c-0.1-2-0.1-4,0.2-6l6.3,3.5l0.3-30.4l-26.3,14.3
			l7.3,4.8c-1.2,4.7-1.7,9.6-1.4,14.5c1.5,23.6,20.8,42.1,43.4,42.1c0.6,0,1.3,0,1.9,0c11.1-0.5,21.3-5.4,28.7-13.7
			C482.4,394.8,486.3,383.3,485.5,371.2z"/>
		<path class="st22" d="M481.6,371.2c-1.6-24.3-21.9-43.2-45.4-42.1l-2.5,0.1l0.9,13.9l2.5-0.1c16-0.7,29.9,12.2,31,28.9
			c0.5,8.3-2.1,16.2-7.5,22.2c-5.1,5.7-12,9-19.5,9.3c-16,0.7-29.9-12.2-31-28.9c-0.1-2-0.1-4,0.2-6l6.3,3.5l0.3-30.4l-26.3,14.3
			l7.3,4.8c-1.2,4.7-1.7,9.6-1.4,14.5c1.5,23.6,20.8,42.1,43.4,42.1c0.6,0,1.3,0,1.9,0c11.1-0.5,21.3-5.4,28.7-13.7
			C478.5,394.8,482.4,383.3,481.6,371.2z"/>
	</g>
</g>
</svg>
