<?xml version="1.0" encoding="utf-8"?>
<!-- Generator: Adobe Illustrator 22.1.0, SVG Export Plug-In . SVG Version: 6.00 Build 0)  -->
<svg version="1.1" xmlns="http://www.w3.org/2000/svg" xmlns:xlink="http://www.w3.org/1999/xlink" x="0px" y="0px"
	 viewBox="0 0 707.9 156.1" style="enable-background:new 0 0 707.9 156.1;" xml:space="preserve">
<style type="text/css">
	.st0{fill:#8DBF3D;}
	.st1{fill:url(#SVGID_1_);}
	.st2{fill:url(#SVGID_2_);}
	.st3{fill:#DDA181;}
	.st4{fill:#F1C4AB;}
	.st5{fill:#8D173A;}
	.st6{opacity:0.29;fill:#231F20;}
	.st7{opacity:0.29;}
	.st8{fill:#231F20;}
	.st9{opacity:0.44;fill:url(#SVGID_3_);}
	.st10{fill:#BDBEC0;}
	.st11{fill:#D9E2E6;}
	.st12{fill:#001300;}
	.st13{fill:url(#SVGID_4_);}
	.st14{opacity:0.43;fill:#FFFFFF;}
	.st15{fill:url(#SVGID_5_);}
	.st16{fill:url(#SVGID_6_);}
	.st17{fill:url(#SVGID_7_);}
	.st18{fill:#3B525A;}
	.st19{fill:#6D8F9B;}
	.st20{opacity:0.13;}
	.st21{fill:#5B605A;}
	.st22{fill:#FFFFFF;}
	.st23{fill:#B2B2B2;}
	.st24{opacity:0.44;fill:none;stroke:#008E00;stroke-width:5;stroke-miterlimit:10;}
	.st25{fill:#344331;}
	.st26{opacity:0.44;fill:#66C76D;}
	.st27{opacity:0.13;fill:#5B605A;}
	.st28{opacity:0.13;fill:url(#SVGID_8_);}
	.st29{opacity:0.13;fill:url(#SVGID_9_);}
	.st30{fill:#D8CC60;}
	.st31{fill:#A9C358;}
	.st32{fill:#557C3E;}
	.st33{fill:#B9C55A;}
	.st34{fill:#17FFBD;}
	.st35{fill:url(#SVGID_10_);}
	.st36{fill:url(#SVGID_11_);}
	.st37{fill:#127486;}
	.st38{fill:url(#SVGID_12_);}
	.st39{fill:url(#SVGID_13_);}
	.st40{opacity:0.86;stroke:#FFFFFF;stroke-miterlimit:10;}
	.st41{fill:url(#SVGID_14_);}
</style>
<g id="Baggrund">
	<g id="Boef">
	</g>
	<g id="Prut">
	</g>
</g>
<g id="Ko">
	<g>
		<g>
			<path class="st11" d="M550.6,0.7c0,0,22.1,31.3,41.8,47.1s30.9,22.8,47.8,28.5l-0.8,13.6c0,0-45.8-14.3-63.9-31
				c-8.7-8-19-11.1-22.8-20.3C545.7,22,550.6,0.7,550.6,0.7z"/>
			<path class="st12" d="M626.1,80.6c0,0,25.7-23.9,39.7-17.6c15,6.8,23.7,32.1,23.7,32.1s-27.2,15.4-41.6,7.9
				C635,96.3,626.1,80.6,626.1,80.6z"/>
		</g>
		<g>
			<path class="st11" d="M373.6,0.7c0,0,15.1,35.2,31.1,54.7c15.9,19.5,25.5,28.7,40.8,37.9l-3.6,13.2c0,0-41.8-23.5-56-43.6
				c-6.8-9.7-16.2-14.8-18.1-24.6C364.4,20.6,373.6,0.7,373.6,0.7z"/>
			<path class="st12" d="M430.9,94.5c0,0,30.1-18.1,42.5-9c13.3,9.8,16.5,36.3,16.5,36.3s-29.8,9.5-42.3-0.9
				C436.3,111.7,430.9,94.5,430.9,94.5z"/>
		</g>
		<g>
			<path class="st11" d="M196.6,0.7c0,0,6.2,37.8,17,60.6s17.8,33.9,30.6,46.6l-6.7,11.9c0,0-35-32.8-43.9-55.8
				c-4.3-11-12.2-18.2-11.7-28.2C182.9,17.8,196.6,0.7,196.6,0.7z"/>
			<path class="st12" d="M229.7,105.5c0,0,33.6-10.3,43.4,1.5c10.5,12.7,7.3,39.2,7.3,39.2s-31.2,2-40.9-11
				C230.8,123.5,229.7,105.5,229.7,105.5z"/>
		</g>
	</g>
	<g>
		<path class="st11" d="M19.6,0.7c0,0,1.1,38.3,8.7,62.3s13.1,36,24,50.2l-8.2,10.9c0,0-30.3-37.2-36.1-61.2
			C5.3,51.5-1.6,43.3,0.3,33.5C3.7,15.8,19.6,0.7,19.6,0.7z"/>
		<path class="st12" d="M38.3,109c0,0,34.6-5.7,42.8,7.3c8.7,14,2,39.8,2,39.8s-31.2-2.2-39-16.4C37,127,38.3,109,38.3,109z"/>
	</g>
</g>
<g id="Jordklode">
</g>
<g id="Taeppe">
</g>
<g id="Blade_x5F_graes_x5F_skyer">
</g>
<g id="Forside_x5F_tekst">
</g>
<g id="Brokkoli">
</g>
<g id="Pølse">
</g>
<g id="Boef_x5F_figur">
</g>
<g id="Playknap">
</g>
<g id="Polse_x5F_spil">
</g>
<g id="Brokkoli_x5F_spil">
</g>
<g id="Game_x5F_over">
</g>
</svg>
