<?xml version="1.0" encoding="utf-8"?>
<!-- Generator: Adobe Illustrator 22.1.0, SVG Export Plug-In . SVG Version: 6.00 Build 0)  -->
<svg version="1.1" xmlns="http://www.w3.org/2000/svg" xmlns:xlink="http://www.w3.org/1999/xlink" x="0px" y="0px"
	 viewBox="0 0 353.1 410.2" style="enable-background:new 0 0 353.1 410.2;" xml:space="preserve">
<style type="text/css">
	.st0{fill:#8DBF3D;}
	.st1{fill:url(#SVGID_1_);}
	.st2{fill:url(#SVGID_2_);}
	.st3{fill:#DDA181;}
	.st4{fill:#F1C4AB;}
	.st5{fill:#8D173A;}
	.st6{opacity:0.29;fill:#231F20;}
	.st7{opacity:0.29;}
	.st8{fill:#231F20;}
	.st9{opacity:0.44;fill:url(#SVGID_3_);}
	.st10{fill:#BDBEC0;}
	.st11{fill:#D9E2E6;}
	.st12{fill:#001300;}
	.st13{fill:url(#SVGID_4_);}
	.st14{opacity:0.43;fill:#FFFFFF;}
	.st15{fill:url(#SVGID_5_);}
	.st16{fill:url(#SVGID_6_);}
	.st17{fill:url(#SVGID_7_);}
	.st18{fill:#3B525A;}
	.st19{fill:#6D8F9B;}
	.st20{opacity:0.13;}
	.st21{fill:#5B605A;}
	.st22{fill:#FFFFFF;}
	.st23{fill:#B2B2B2;}
	.st24{opacity:0.44;fill:none;stroke:#008E00;stroke-width:5;stroke-miterlimit:10;}
	.st25{fill:#344331;}
	.st26{opacity:0.44;fill:#66C76D;}
	.st27{opacity:0.13;fill:#5B605A;}
	.st28{opacity:0.13;fill:url(#SVGID_8_);}
	.st29{opacity:0.13;fill:url(#SVGID_9_);}
	.st30{fill:#D8CC60;}
	.st31{fill:#A9C358;}
	.st32{fill:#557C3E;}
	.st33{fill:#B9C55A;}
	.st34{fill:#17FFBD;}
	.st35{fill:url(#SVGID_10_);}
	.st36{fill:url(#SVGID_11_);}
	.st37{fill:#127486;}
	.st38{fill:url(#SVGID_12_);}
	.st39{fill:url(#SVGID_13_);}
	.st40{opacity:0.86;stroke:#FFFFFF;stroke-miterlimit:10;}
	.st41{fill:url(#SVGID_14_);}
</style>
<g id="Baggrund">
	<g id="Boef">
	</g>
	<g id="Prut">
	</g>
</g>
<g id="Ko">
	<path class="st10" d="M175.4,263.5L175.4,263.5c13.5,0,24.6,11.1,24.6,24.6v97.5c0,13.5-11.1,24.6-24.6,24.6h0
		c-13.5,0-24.6-11.1-24.6-24.6v-97.5C150.8,274.5,161.9,263.5,175.4,263.5z"/>
	<path class="st11" d="M289.3,159.2c0,1-0.2,2.9-0.7,5.6v0c-1.6,10-6,30.7-10.6,52v0c-3.9,17.7-7.9,35.9-10.8,48.9V296h-0.3v89.6
		c0,6.8-2.8,12.9-7.2,17.4c-4.5,4.5-10.6,7.2-17.4,7.2c-13.5,0-24.6-11.1-24.6-24.6V296H0V5.9c0,0,38.5-2.5,82.8-4.9
		c37.8-2.1,91.8-3.6,140,24.7c8.2,4.8,16.2,10.5,23.9,17.1c23,19.8,34,42.3,39.2,62.3c3,11.5,4,22.2,4.2,31.1
		C290.4,147.6,289.3,156,289.3,159.2z"/>
	<path class="st8" d="M285.9,105.1c-0.6,1-1.3,2-2.1,2.9c-7,8.4-18.7,10.5-28.1,5.9c-8.3,9.2-22.5,10.2-32.1,2.1
		c-8.4-7-10.5-18.7-5.9-28.1c-3.6-0.8-7.1-2.4-10.1-4.9c-5.3-4.5-8.1-10.9-8.3-17.3c-2.4-0.9-4.8-2.2-6.9-4
		c-9.8-8.2-11.1-22.9-2.8-32.7c8.3-9.8,22.9-11.1,32.7-2.8c0.1-0.1,0.2-0.3,0.3-0.4c8.2,4.8,16.2,10.5,23.9,17.1
		C269.6,62.6,280.7,85.1,285.9,105.1z"/>
	<path class="st8" d="M137.5,263.1c-0.2,0.6-0.5,1.2-0.8,1.8c-3.2,7.1-8.7,12.7-15.2,16.1c-8.4,4.4-18.5,5.2-28,1.6
		c-3.8-1.5-7.1-3.5-10-6c-6.9,7.5-17,11.6-27.3,10.9c-0.2,2.8-0.8,5.7-1.9,8.5H0v-80.9c2.2-0.1,4.4-0.1,6.6,0.2
		c-0.7-5.4-0.1-11,2-16.4c3.7-9.5,11.2-16.4,20.1-19.7c0.1-3.8,0.8-7.7,2.3-11.4c6.8-17.5,26.4-26.2,44-19.5
		c17.5,6.8,26.2,26.4,19.5,44c11.6,4.5,19.4,14.7,21.3,26.1c0.8,0.2,1.5,0.5,2.3,0.8C135.5,225.9,144.3,245.6,137.5,263.1z"/>
</g>
<g id="Jordklode">
</g>
<g id="Taeppe">
</g>
<g id="Blade_x5F_graes_x5F_skyer">
</g>
<g id="Forside_x5F_tekst">
</g>
<g id="Brokkoli">
</g>
<g id="Pølse">
</g>
<g id="Boef_x5F_figur">
</g>
<g id="Playknap">
</g>
<g id="Polse_x5F_spil">
</g>
<g id="Brokkoli_x5F_spil">
</g>
<g id="Game_x5F_over">
</g>
</svg>
