<?xml version="1.0" encoding="utf-8"?>
<!-- Generator: Adobe Illustrator 22.1.0, SVG Export Plug-In . SVG Version: 6.00 Build 0)  -->
<svg version="1.1" id="Layer_1" xmlns="http://www.w3.org/2000/svg" xmlns:xlink="http://www.w3.org/1999/xlink" x="0px" y="0px"
	 viewBox="0 0 1594.8 159" style="enable-background:new 0 0 1594.8 159;" xml:space="preserve">
<style type="text/css">
	.st0{opacity:0.29;fill:#231F20;enable-background:new    ;}
	.st1{opacity:0.29;}
	.st2{fill:#231F20;}
</style>
<g id="Baggrund">
	<g id="Boef">
	</g>
	<g id="Prut">
		<path class="st0" d="M543.7,74.6c0-10.7-7.2-19.7-17-22.5c0.8-2.3,1.2-4.7,1.2-7.3c0-12.9-10.4-23.3-23.3-23.3
			c-11.4,0-20.8,8.1-22.9,18.9c-4.2-3.8-9.7-6.1-15.8-6.1c-9,0-16.8,5.1-20.7,12.5c0.4-1.3,0.6-2,0.6-2c-10.5,31.5-99,21-99,21
			l-11.2,23.4c0,0,7.3,0.3,27.7,0.7c12.9,0.2,41.6,7.1,61,12.1c-1.1,2.7-1.7,5.7-1.7,8.9c0,12.9,10.4,23.3,23.3,23.3
			c4.1,0,8-1.1,11.3-2.9c3.8,7.8,11.8,13.3,21.1,13.3c9.3,0,17.3-5.4,21-13.2c4.1,2.3,8.9,3.3,13.9,2.8c12.8-1.4,22-13,20.6-25.8
			c-0.5-4.5-2.3-8.6-5-12C537.5,93,543.7,84.5,543.7,74.6z M498.1,67.7c-0.3-0.3-0.5-0.5-0.8-0.8c0.3,0.1,0.6,0.2,0.9,0.3
			C498.2,67.4,498.1,67.6,498.1,67.7z"/>
		<circle class="st0" cx="1517.6" cy="26.5" r="23.3"/>
		<circle class="st0" cx="1530.4" cy="131.6" r="23.3"/>
		<g class="st1">
			<path class="st2" d="M1111.5,62.2c-5,4.3-8.2,10.7-8.2,17.8c0,12.9,10.4,23.3,23.3,23.3s23.3-10.4,23.3-23.3
				c0-11-7.6-20.2-17.9-22.7c6.5-5.5,9.7-14.4,7.6-23.2c-3-12.5-15.6-20.3-28.1-17.3s-20.3,15.6-17.3,28.1
				C1096.4,53.7,1103.3,60.2,1111.5,62.2z"/>
			<path class="st2" d="M1208.3,72c0-12.9-10.4-23.3-23.3-23.3c-1,0-1.9,0.1-2.8,0.2c4-4.2,6.4-9.8,6.4-16
				c0-12.9-10.4-23.3-23.3-23.3c-12.9,0-23.5,10.3-23.5,23.2s10.4,23.3,23.3,23.3c1,0,1.9-0.1,2.8-0.2c-4,4.2-6.4,9.8-6.4,16
				c0,6.6,2.8,12.6,7.2,16.9c-12.7,1.5-21.8,13-20.4,25.8s13,22,25.8,20.6c12.8-1.4,22-13,20.6-25.8c-0.6-5.7-3.2-10.6-7.1-14.3
				C1199.3,93.8,1208.3,83.9,1208.3,72z"/>
			<path class="st2" d="M1083.5,87.6c-2.6,0-5,0.4-7.3,1.2c-0.1-1.2-0.1-2.5-0.1-3.7c12.1-0.4,22.1-10.1,22.6-22.4
				c0.5-12.9-9.5-23.7-22.4-24.2s-23.7,9.5-24.2,22.4c0,1.2,0,2.5,0.1,3.7c-29.2,5.9-67.7,1.4-67.7,1.4l-11.3,23.4
				c0,0,7.3,0.3,27.7,0.7c12.9,0.2,41.6,7.1,61,12.1c-1.1,2.7-1.7,5.7-1.7,8.9c0,12.9,10.4,23.3,23.3,23.3
				c12.9,0,23.3-10.4,23.3-23.3S1096.4,87.6,1083.5,87.6z"/>

				<ellipse transform="matrix(0.7071 -0.7071 0.7071 0.7071 237.6184 834.8892)" class="st2" cx="1126.6" cy="130.6" rx="23.3" ry="23.3"/>
		</g>
		<path class="st0" d="M866.3,51.2c-12.9,0-23.3,10.4-23.3,23.3c0,6,2.3,11.4,6,15.6c-3.3-1.2-6.9-1.7-10.7-1.3
			c-1.3,0.1-2.6,0.4-3.9,0.8c0.3-1.5,0.5-3,0.5-4.6c0-6.7-2.8-12.7-7.3-17c0.7,0.1,1.4,0.1,2.1,0.1c12.9,0,23.3-10.4,23.3-23.3
			s-10.4-23.3-23.3-23.3c-8.8,0-16.4,4.9-20.4,12c-4.1-3.5-9.4-5.6-15.2-5.6c-10.4,0-19.2,6.8-22.2,16.2c-0.1,0-0.1,0-0.2,0
			c-2.3-0.1-4.6,0.2-6.7,0.7l0,0l0,0c-7.6,2-13.8,7.7-16.3,15.1c-28.6,12.3-82.7,5.8-82.7,5.8l-11.3,23.4c0,0,7.3,0.3,27.7,0.7
			c12.9,0.2,41.6,7.1,61,12.1c-1.1,2.7-1.7,5.7-1.7,8.9c0,12.9,10.4,23.3,23.3,23.3c3.2,0,6.3-0.7,9.1-1.9c0.9,12,11,21.5,23.3,21.5
			c12.9,0,23.3-10.4,23.3-23.3s-10.4-23.3-23.3-23.3c-3.2,0-6.3,0.7-9.1,1.9c-0.6-8.2-5.5-15.2-12.4-18.9c5-1.1,9.4-3.8,12.6-7.5
			c-0.1,0.8-0.1,1.5-0.1,2.3c0,12.9,10.4,23.3,23.3,23.3c2.2,0,4.4-0.3,6.5-0.9c-0.5,2.3-0.6,4.7-0.3,7.2c1.4,12.8,13,22,25.8,20.6
			s22-13,20.6-25.8c-0.6-5-2.7-9.5-5.8-13c2.5,0.9,5.2,1.4,8.1,1.4c12.9,0,23.3-10.4,23.3-23.3C889.6,61.7,879.2,51.2,866.3,51.2z
			 M757.5,86.7c0.8,0.5,1.5,1,2.4,1.4c-0.8,0.2-1.6,0.4-2.3,0.6C757.5,88,757.5,87.4,757.5,86.7z"/>
		<circle class="st0" cx="1565.7" cy="72.4" r="23.3"/>
	</g>
</g>
<g id="Ko">
</g>
<g id="Jordklode">
</g>
<g id="Taeppe">
</g>
<g id="Blade_x5F_graes_x5F_skyer">
</g>
<g id="Forside_x5F_tekst">
</g>
<g id="Brokkoli">
</g>
<g id="Pølse">
</g>
<g id="Boef_x5F_figur">
</g>
<g id="Playknap">
</g>
<g id="Polse_x5F_spil">
</g>
<g id="Brokkoli_x5F_spil">
</g>
<g id="Game_x5F_over">
</g>
</svg>
