<svg xmlns="http://www.w3.org/2000/svg" xmlns:xlink="http://www.w3.org/1999/xlink" viewBox="0 0 136.28 134.82"><defs><style>.cls-1{fill:#127486;}.cls-2{fill:url(#radial-gradient);}.cls-3{fill:#fff;}</style><radialGradient id="radial-gradient" cx="66" cy="66" r="66" gradientUnits="userSpaceOnUse"><stop offset="0.1" stop-color="#00adc2"/><stop offset="1" stop-color="#068496"/></radialGradient></defs><title>Svg</title><g id="Game_over"><circle class="cls-1" cx="70.29" cy="68.83" r="66"/><circle class="cls-2" cx="66" cy="66" r="66"/><path class="cls-1" d="M113,67.8C111.4,43.51,91.06,24.65,67.62,25.73l-2.54.12.9,13.9,2.45-.11c16-.73,29.89,12.21,31,28.88a30,30,0,0,1-7.51,22.17A27.67,27.67,0,0,1,72.44,100c-16,.74-29.89-12.21-31-28.88a31.67,31.67,0,0,1,.19-6L50,70.62l2.35-29.36L23,52.56l6.3,4.79a44.93,44.93,0,0,0-1.4,14.5C29.43,95.47,48.71,114,71.32,114c.64,0,1.29,0,1.93,0A40.88,40.88,0,0,0,102,100.17,43.82,43.82,0,0,0,113,67.8Z"/><path class="cls-3" d="M109.06,67.8C107.48,43.51,87.15,24.65,63.7,25.73l-2.54.12.9,13.9,2.45-.11c16-.73,29.9,12.21,31,28.88A30,30,0,0,1,88,90.69,27.67,27.67,0,0,1,68.52,100c-16,.74-29.89-12.21-31-28.88a30.87,30.87,0,0,1,.2-6l8.31,5.49,2.35-29.36L19.08,52.56l6.3,4.79A44.93,44.93,0,0,0,24,71.85C25.51,95.47,44.79,114,67.4,114c.64,0,1.29,0,1.94,0a40.86,40.86,0,0,0,28.72-13.75A43.83,43.83,0,0,0,109.06,67.8Z"/></g></svg>
