<svg xmlns="http://www.w3.org/2000/svg" width="58.43" height="58.43" viewBox="0 0 58.43 58.43">
  <defs>
    <style>
      .cls-1 {
        fill: #fff;
      }
    </style>
  </defs>
  <title>setting</title>
  <g id="Barometer">
    <path class="cls-1" d="M55.09,24.62H53.16a24,24,0,0,0-3.77-9.09l1.37-1.37a3.34,3.34,0,0,0,0-4.72L49,7.67a3.34,3.34,0,0,0-4.72,0L42.9,9a24,24,0,0,0-9.09-3.77V3.34A3.34,3.34,0,0,0,30.47,0H28a3.34,3.34,0,0,0-3.34,3.34V5.27A24,24,0,0,0,15.53,9L14.16,7.67a3.34,3.34,0,0,0-4.72,0L7.67,9.44a3.34,3.34,0,0,0,0,4.72L9,15.53a24,24,0,0,0-3.77,9.09H3.34A3.35,3.35,0,0,0,0,28v2.51a3.35,3.35,0,0,0,3.34,3.34H5.27A24,24,0,0,0,9,42.9L7.67,44.27a3.34,3.34,0,0,0,0,4.72l1.77,1.77a3.34,3.34,0,0,0,4.72,0l1.37-1.37a24,24,0,0,0,9.09,3.77v1.93A3.34,3.34,0,0,0,28,58.43h2.51a3.34,3.34,0,0,0,3.34-3.34V53.16a24,24,0,0,0,9.09-3.77l1.37,1.37a3.34,3.34,0,0,0,4.72,0L50.76,49a3.34,3.34,0,0,0,0-4.72L49.4,42.9a24.15,24.15,0,0,0,3.76-9.09h1.93a3.34,3.34,0,0,0,3.34-3.34V28A3.34,3.34,0,0,0,55.09,24.62ZM29.22,41.8A12.59,12.59,0,1,1,41.8,29.22,12.58,12.58,0,0,1,29.22,41.8Z"/>
  </g>
</svg>
