<svg xmlns="http://www.w3.org/2000/svg" xmlns:xlink="http://www.w3.org/1999/xlink" viewBox="0 0 1334 750"><defs><style>.cls-1{fill:#8dbf3d;}.cls-11,.cls-2,.cls-9{opacity:0.44;}.cls-2{fill:url(#linear-gradient);}.cls-3{fill:#3b525a;}.cls-4{fill:#6d8f9b;}.cls-12,.cls-5{opacity:0.13;}.cls-12,.cls-6{fill:#5b605a;}.cls-7{fill:#fff;}.cls-8{fill:#b2b2b2;}.cls-9{fill:none;stroke:#008e00;stroke-miterlimit:10;stroke-width:5px;}.cls-10{fill:#344331;}.cls-11{fill:#66c76d;}</style><linearGradient id="linear-gradient" x1="793.35" y1="13.65" x2="513.35" y2="831.65" gradientUnits="userSpaceOnUse"><stop offset="0" stop-color="#88a80d"/><stop offset="1" stop-color="#006837"/></linearGradient></defs><title>Spil_elementer_14.10.18_1</title><g id="Baggrund"><rect class="cls-1" x="0.08" y="-0.26" width="1334" height="750"/><rect class="cls-2" x="3" y="-1" width="1334" height="750"/></g><g id="Taeppe"><path class="cls-3" d="M305.27,192c4.26-13.07,19-23.77,32.75-23.77h664.12c13.75,0,27.69,10.93,31,24.28L1131,589.69c3.29,13.35-5.27,24.28-19,24.28H192.62c-13.75,0-21.51-10.7-17.25-23.77Z"/><path class="cls-4" d="M308.21,186.3c4.24-13.08,19-23.78,32.7-23.78H999.15c13.75,0,27.67,10.93,30.94,24.28l97.08,397.13c3.27,13.35-5.31,24.28-19.06,24.28H196.7c-13.75,0-21.54-10.7-17.31-23.79Z"/><g class="cls-5"><path class="cls-6" d="M309.57,186.3c4.23-13.08,18.94-23.78,32.69-23.78h306a25.07,25.07,0,0,1,25,25V583.21a25.07,25.07,0,0,1-25,25H198.05c-13.75,0-21.54-10.7-17.3-23.79Z"/></g><ellipse class="cls-7" cx="340.75" cy="362.02" rx="67.78" ry="47.64"/><path class="cls-7" d="M288,362c0-20.46,23.6-37,52.71-37"/><path class="cls-8" d="M289,362h-2c0-21,24.08-38,53.69-38v2C312.23,326,289,342.13,289,362Z"/><ellipse class="cls-7" cx="975.32" cy="364.73" rx="67.78" ry="47.64"/><path class="cls-7" d="M922.61,364.73c0-20.47,23.6-37.05,52.71-37.05"/><path class="cls-8" d="M923.59,364.73h-2c0-21,24.08-38,53.69-38v2C946.8,328.66,923.59,344.84,923.59,364.73Z"/><ellipse class="cls-7" cx="927.27" cy="237.63" rx="62.65" ry="44.03"/><path class="cls-7" d="M878.56,237.63c0-18.91,21.81-34.24,48.71-34.24"/><path class="cls-8" d="M879.47,237.63h-1.82c0-19.38,22.26-35.15,49.62-35.15v1.81C900.91,204.29,879.47,219.25,879.47,237.63Z"/><ellipse class="cls-7" cx="755.11" cy="237.63" rx="62.65" ry="44.03"/><path class="cls-7" d="M706.39,237.63c0-18.91,21.81-34.24,48.72-34.24"/><path class="cls-8" d="M707.3,237.63h-1.81c0-19.38,22.26-35.15,49.62-35.15v1.81C728.75,204.29,707.3,219.25,707.3,237.63Z"/><ellipse class="cls-7" cx="582.95" cy="237.63" rx="62.65" ry="44.03"/><path class="cls-7" d="M534.23,237.63c0-18.91,21.81-34.24,48.72-34.24"/><path class="cls-8" d="M535.14,237.63h-1.82c0-19.38,22.26-35.15,49.63-35.15v1.81C556.59,204.29,535.14,219.25,535.14,237.63Z"/><ellipse class="cls-7" cx="410.78" cy="237.63" rx="62.65" ry="44.03"/><path class="cls-7" d="M362.07,237.63c0-18.91,21.81-34.24,48.71-34.24"/><path class="cls-8" d="M363,237.63h-1.82c0-19.38,22.26-35.15,49.62-35.15v1.81C384.42,204.29,363,219.25,363,237.63Z"/><ellipse class="cls-7" cx="966.67" cy="523.23" rx="78.23" ry="54.99"/><path class="cls-7" d="M905.83,523.23c0-23.61,27.24-42.76,60.84-42.76"/><path class="cls-8" d="M907,523.24H904.7c0-24.21,27.8-43.9,62-43.9v2.27C933.75,481.61,907,500.28,907,523.24Z"/><ellipse class="cls-7" cx="757.55" cy="523.23" rx="78.23" ry="54.99"/><path class="cls-7" d="M696.72,523.23c0-23.61,27.23-42.76,60.83-42.76"/><path class="cls-8" d="M697.85,523.24h-2.27c0-24.21,27.8-43.9,62-43.9v2.27C724.63,481.61,697.85,500.28,697.85,523.24Z"/><ellipse class="cls-7" cx="548.43" cy="523.23" rx="78.23" ry="54.99"/><path class="cls-7" d="M487.6,523.23c0-23.61,27.23-42.76,60.83-42.76"/><path class="cls-8" d="M488.73,523.24h-2.27c0-24.21,27.8-43.9,62-43.9v2.27C515.51,481.61,488.73,500.28,488.73,523.24Z"/><ellipse class="cls-7" cx="339.31" cy="523.23" rx="78.23" ry="54.99"/><path class="cls-7" d="M278.48,523.23c0-23.61,27.23-42.76,60.83-42.76"/><path class="cls-8" d="M279.61,523.24h-2.27c0-24.21,27.8-43.9,62-43.9v2.27C306.39,481.61,279.61,500.28,279.61,523.24Z"/></g><g id="Blade_graes_skyer"><path class="cls-9" d="M207.13,176.74c17.05-14,4.3-47.38,4.3-47.38s17.63,21.23,20.2,43.67c0,0-3.72-41.41,13.58-65.16,0,0-2.92,49.69,10.83,67.43,0,0,5.54-21.59,5.54-34.05"/><path class="cls-9" d="M1122.92,256.57c17.42-14.27,4.39-48.42,4.39-48.42s18,21.7,20.64,44.64c0,0-3.8-42.33,13.88-66.6,0,0-3,50.78,11.07,68.91,0,0,5.66-22.06,5.66-34.79"/><path class="cls-9" d="M48.86,445.91s13.5-51,0-75c0,0,22.6,49.56,19.26,68.9,0,0,2.67-40,18-54,0,0-14,38.66,5.34,56,0,0,5.33-6.67,5.33-22.67,0,0-2,17.52,10.67,26.76"/><path class="cls-9" d="M1125,646.31s10.76,41.26,6,58c0,0,9.56-62.78,15.54-80.72,0,0-4.53,63,0,75s10.54-18,12-27c0,0-.5,12,9.5,27.5"/><path class="cls-10" d="M1357.92,67a2.06,2.06,0,0,1-.94.72c-46.52,17.23-61.9,34.13-75.48,49-2.14,2.35-4.16,4.57-6.29,6.78a2.05,2.05,0,1,1-3-2.85c2.09-2.17,4.09-4.37,6.21-6.7,13.89-15.25,29.64-32.54,77.09-50.12a2,2,0,0,1,2.37,3.13Z"/><path class="cls-10" d="M1292.32,108.46c11.61,8.46,8.38,32.65-7.2,54s-39.18,23-49.24,23.41c-1.06,0-8.39-32.66,7.19-54S1280.71,100,1292.32,108.46Z"/><path class="cls-11" d="M1292.32,108.46c11.61,8.46,8.38,32.65-7.2,54s-36.3,22.16-49.24,23.41C1235.88,185.91,1280.71,100,1292.32,108.46Z"/><path class="cls-10" d="M1290.34-56.95a2.11,2.11,0,0,1-.94.71c-46.52,17.24-61.91,34.13-75.48,49-2.14,2.35-4.17,4.57-6.3,6.78a2,2,0,0,1-2.9.06,2.05,2.05,0,0,1-.06-2.9c2.09-2.18,4.1-4.38,6.22-6.71,13.89-15.25,29.64-32.54,77.09-50.12a2.05,2.05,0,0,1,2.64,1.21A2.06,2.06,0,0,1,1290.34-56.95Z"/><path class="cls-10" d="M1224.73-15.54c11.61,8.46,8.39,32.65-7.19,54s-39.18,23-49.24,23.41c-1.06.05-8.39-32.66,7.19-54S1213.12-24,1224.73-15.54Z"/><path class="cls-11" d="M1224.73-15.54c11.61,8.46,8.39,32.65-7.19,54s-36.3,22.16-49.24,23.41C1168.3,61.91,1213.12-24,1224.73-15.54Z"/><path class="cls-10" d="M1188.41-29.2a2,2,0,0,0-1,.62c-33,37.08-54.28,45.28-73.1,52.52-3,1.14-5.77,2.22-8.6,3.4a2.05,2.05,0,0,0,1.57,3.79c2.79-1.16,5.57-2.23,8.51-3.36,19.25-7.4,41.08-15.79,74.69-53.62a2.06,2.06,0,0,0-.17-2.9A2,2,0,0,0,1188.41-29.2Z"/><path class="cls-10" d="M1126,16.89C1122.33,3,1098.62-2.78,1073,4s-35.61,28.17-39.69,37.39c-.42,1,27.39,19.67,53,12.91S1129.67,30.78,1126,16.89Z"/><path class="cls-11" d="M1126,16.89C1122.33,3,1098.62-2.78,1073,4s-33.82,25.78-39.69,37.39C1033.34,41.36,1129.67,30.78,1126,16.89Z"/><path class="cls-10" d="M1284.74,234.49a1.4,1.4,0,0,1,.57-.56c29.78-15.79,38.62-28.55,46.42-39.81,1.23-1.77,2.4-3.45,3.63-5.13a1.4,1.4,0,0,1,2.25,1.65c-1.21,1.65-2.36,3.31-3.58,5.07-8,11.52-17,24.58-47.41,40.68a1.4,1.4,0,0,1-1.89-.58A1.37,1.37,0,0,1,1284.74,234.49Z"/><path class="cls-10" d="M1310.53,221.39c4.92,8.43-3.67,22.61-19.19,31.68s-25.84,7.14-37,1.17c2.78-9,3.66-22.61,19.18-31.68S1305.6,213,1310.53,221.39Z"/><path class="cls-11" d="M1310.53,221.39c4.92,8.43-3.67,22.61-19.19,31.68s-25.88,7.17-37,1.17C1254.32,254.24,1288.61,246.72,1310.53,221.39Z"/><path class="cls-10" d="M1341.43,686.42a2,2,0,0,1-1.1-.43c-39-30.71-61.41-35-81.2-38.83-3.13-.61-6.08-1.17-9.08-1.84a2.05,2.05,0,0,1,.89-4c2.94.65,5.87,1.22,9,1.81,20.26,3.9,43.22,8.32,83,39.64a2.06,2.06,0,0,1,.34,2.89A2,2,0,0,1,1341.43,686.42Z"/><path class="cls-10" d="M1271.88,652c-1.16,14.31-23.49,24.18-49.87,22s-40-21.46-45.65-29.81c-.59-.88,23.5-24.19,49.87-22S1273,637.72,1271.88,652Z"/><path class="cls-11" d="M1271.88,652c-1.16,14.31-23.49,24.18-49.87,22s-37.83-19.42-45.65-29.81C1176.36,644.27,1273,637.72,1271.88,652Z"/><path class="cls-10" d="M1287.11,588.44a1.48,1.48,0,0,1,.17.79c-2.63,33.59,3.4,47.9,8.72,60.52.84,2,1.64,3.87,2.39,5.81a1.4,1.4,0,1,1-2.6,1c-.74-1.91-1.53-3.77-2.36-5.75-5.44-12.91-11.62-27.55-8.93-61.82a1.4,1.4,0,0,1,2.61-.57Z"/><path class="cls-10" d="M1284.35,617.23c-9.76-.35-17.13-15.21-16.47-33.18s7.82-25.63,18.85-31.88c6.11,7.18,17.13,15.21,16.47,33.18S1294.1,617.59,1284.35,617.23Z"/><path class="cls-11" d="M1284.35,617.23c-9.76-.35-17.13-15.21-16.47-33.18s7.82-25.69,18.85-31.88C1286.73,552.17,1274.7,585.16,1284.35,617.23Z"/><path class="cls-10" d="M60.06,89.52a2.16,2.16,0,0,1-1.21.07C9.39,77.71-13.36,83.31-33.44,88.26c-3.16.77-6.15,1.51-9.23,2.18a2.09,2.09,0,0,1-2.5-1.61,2.1,2.1,0,0,1,1.61-2.5c3-.66,6-1.39,9.12-2.16,20.54-5.06,43.82-10.8,94.27,1.32a2.11,2.11,0,0,1,.23,4Z"/><path class="cls-10" d="M17.79,78.58C20.64,64.13,44.53,56.66,71.15,61.9s36.36,17.73,43.06,35.65c-12.15,7.41-26.74,21.93-53.36,16.69S15,93,17.79,78.58Z"/><path class="cls-11" d="M17.79,78.58C20.64,64.13,44.53,56.66,71.15,61.9s36.44,17.75,43.06,35.65C114.21,97.55,67.89,71.81,17.79,78.58Z"/><path class="cls-10" d="M-.46,147.2a2.1,2.1,0,0,1,1.05.55C36,182.49,57.85,189.21,77.12,195.13c3,.94,5.91,1.82,8.82,2.8a2.06,2.06,0,0,1-1.31,3.9c-2.86-1-5.7-1.84-8.71-2.77C56.2,193,33.85,186.12-2.28,150.69a2.06,2.06,0,0,1,0-2.91A2.06,2.06,0,0,1-.46,147.2Z"/><path class="cls-10" d="M65,188.9c2.7-14.1,26-21.5,52-16.52S154.39,198,159.09,207c.49.94-26,21.51-52,16.52S62.26,203,65,188.9Z"/><path class="cls-11" d="M65,188.9c2.7-14.1,26-21.5,52-16.52s35.51,23.39,42.16,34.57C159.09,207,62.26,203,65,188.9Z"/><path class="cls-10" d="M75.22,152a1.06,1.06,0,0,1-.53.31c-25.3,5.93-34.4,13.72-42.43,20.58C31,174,29.8,175,28.55,176.05a1.07,1.07,0,0,1-1.35-1.67c1.23-1,2.41-2,3.67-3.08,8.21-7,17.51-15,43.32-21a1.07,1.07,0,0,1,1,1.78Z"/><path class="cls-10" d="M53.42,156.76c-2-7.25,7.17-16.15,20.52-19.87s20.67-.26,27.84,6.39c-3.84,6.16-7.16,16.14-20.52,19.86S55.44,164,53.42,156.76Z"/><path class="cls-11" d="M53.42,156.76c-2-7.25,7.17-16.15,20.52-19.87s20.71-.27,27.84,6.39C101.78,143.28,74.73,142.16,53.42,156.76Z"/><path class="cls-10" d="M-13.53,717.5a2,2,0,0,1,1.15-.26c49.49,3.45,70.47-5.61,89-13.6,2.92-1.26,5.68-2.45,8.53-3.59a2.06,2.06,0,0,1,1.52,3.82c-2.8,1.11-5.53,2.29-8.42,3.54-18.94,8.18-40.41,17.45-90.89,13.92a2.05,2.05,0,0,1-1.91-2.19A2.05,2.05,0,0,1-13.53,717.5Z"/><path class="cls-10" d="M63.31,706.79c-7.1-12.5,5.81-33.22,28.82-46.28s45.16-4.78,54.51-1c1,.39-5.81,33.21-28.82,46.28S70.4,719.28,63.31,706.79Z"/><path class="cls-11" d="M63.31,706.79c-7.1-12.5,5.81-33.22,28.82-46.28s42.2-5.24,54.51-1C146.64,659.46,70.4,719.28,63.31,706.79Z"/><path class="cls-10" d="M47.2,672.08a1.05,1.05,0,0,1-.21.58c-15.41,20.93-17.28,32.76-18.93,43.19-.26,1.65-.51,3.2-.8,4.78a1.08,1.08,0,0,1-2.12-.39c.29-1.56.53-3.1.79-4.73,1.69-10.67,3.61-22.77,19.32-44.12a1.08,1.08,0,0,1,2,.69Z"/><path class="cls-10" d="M33.67,689.81c-6.25-4.2-5-16.93,2.72-28.43s15.56-13.6,25.33-13.2c1.08,7.19,5,16.93-2.73,28.43S39.91,694,33.67,689.81Z"/><path class="cls-11" d="M33.67,689.81c-6.25-4.2-5-16.93,2.72-28.43S52,647.74,61.72,648.18C61.72,648.18,40.41,664.88,33.67,689.81Z"/><path class="cls-12" d="M941,122.66c11.12,31.3,48.35,49.05,86.43,40.07a87,87,0,0,0,16.24-5.56c16.44,21.92,49,32.7,82.33,24.83,20.06-4.73,36.84-15.36,48.1-28.94a85.49,85.49,0,0,0,25.73-2.63,57.38,57.38,0,0,0,1,26.66c9.66,34.63,50,53.66,90,42.49,38-10.61,62.15-44.63,56.21-77.68,16.85,21.24,48.33,31,79.66,22.24,34.26-9.56,57.23-38.11,57.11-67.85a86.4,86.4,0,0,0,17.42-3c40-11.17,64.68-48.3,55-82.94-8.31-29.78-39.27-48-73.24-45.44-12.39-30.82-50.3-47.06-88-36.54a86.41,86.41,0,0,0-16,6.2c-17.32-21.23-50.26-30.68-83.28-21.47-21.2,5.91-38.38,18.39-49,33.75a87.57,87.57,0,0,0-15.32,1.88,57.35,57.35,0,0,0,.1-26.67c-8.25-35-47.75-55.63-88.21-46.09C1104.87-115,1079.39-82,1084-48.69c-16-21.9-47-32.91-78.69-25.44C970.67-66,946.57-38.37,945.49-8.65A86.92,86.92,0,0,0,928-6.36c-40.46,9.55-66.57,45.65-58.32,80.65C876.73,104.39,906.93,123.86,941,122.66Z"/><path class="cls-12" d="M-275.47,709.35c11.13,31.3,48.35,49,86.44,40.07a87.17,87.17,0,0,0,16.23-5.56c16.44,21.92,49,32.7,82.34,24.83,20.06-4.73,36.83-15.36,48.09-28.94a85.49,85.49,0,0,0,25.73-2.63,57.38,57.38,0,0,0,1,26.66c9.66,34.64,50,53.66,90,42.49,38-10.61,62.15-44.62,56.21-77.68,16.85,21.24,48.33,31,79.66,22.24,34.26-9.55,57.23-38.11,57.11-67.85a86.62,86.62,0,0,0,17.43-3c40-11.17,64.67-48.3,55-82.93-8.31-29.79-39.27-48-73.24-45.45-12.38-30.82-50.29-47.06-88-36.54a85.83,85.83,0,0,0-16,6.21c-17.32-21.24-50.25-30.69-83.27-21.48-21.2,5.91-38.39,18.39-49,33.75A87.34,87.34,0,0,0,15,535.42a57.62,57.62,0,0,0,.1-26.67c-8.26-35-47.75-55.63-88.22-46.09-38.42,9.06-63.9,42.07-59.3,75.35-16-21.91-47-32.92-78.7-25.45-34.61,8.16-58.72,35.76-59.8,65.48a86.85,86.85,0,0,0-17.53,2.3C-329,589.88-355.07,626-346.81,661-339.72,691.08-309.52,710.55-275.47,709.35Z"/></g></svg>
