<?xml version="1.0" encoding="utf-8"?>
<!-- Generator: Adobe Illustrator 22.1.0, SVG Export Plug-In . SVG Version: 6.00 Build 0)  -->
<svg version="1.1" id="Layer_1" xmlns="http://www.w3.org/2000/svg" xmlns:xlink="http://www.w3.org/1999/xlink" x="0px" y="0px"
	 viewBox="0 0 136.8 506.7" style="enable-background:new 0 0 136.8 506.7;" xml:space="preserve">
<style type="text/css">
	.st0{fill:#FFFFFF;}
	.st1{fill:#344331;}
</style>
<title>Svg</title>
<g id="Barometer-2">
	<path class="st0" d="M87.7,417.7V61.2h-0.1c0-0.6,0.1-1.2,0.1-1.8C88,42.8,74.9,29.1,58.3,28.8S28.1,41.7,27.8,58.2
		c0,0.4,0,0.7,0,1.1c0,0.6,0,1.2,0.1,1.8h-0.1v356.5c-20.5,16.5-23.6,46.5-7.1,67c16.5,20.5,46.5,23.6,67,7.1
		c20.5-16.5,23.6-46.5,7.1-67C92.7,422.2,90.3,419.8,87.7,417.7z M57.8,473.4c-12.7,0-23.1-10.3-23-23.1c0-8.5,4.7-16.2,12.1-20.3
		V59.6c0-6,4.9-10.9,10.9-10.9s10.9,4.9,10.9,10.9v370.5c11.2,6.1,15.4,20,9.3,31.2C74,468.8,66.2,473.4,57.8,473.4z"/>
	<path class="st1" d="M92.1,415.6V56.8H92c-1.4-18.9-17.8-33.1-36.7-31.7c-18,1.3-31.9,16.3-31.8,34.3c0,0.3,0,0.5,0,0.8v1v354.5
		c-21.6,19-23.7,51.8-4.7,73.4c19,21.6,51.8,23.7,73.4,4.7s23.7-51.8,4.7-73.4C95.4,418.7,93.8,417.1,92.1,415.6L92.1,415.6z
		 M57.8,502.3c-26.3,0-47.6-21.3-47.6-47.6c0-14.4,6.5-28,17.7-37.1V61.2h0.1c0-0.6-0.1-1.2-0.1-1.8c-0.3-16.5,12.9-30.2,29.4-30.5
		c16.5-0.3,30.2,12.9,30.5,29.4c0,0.4,0,0.7,0,1.1c0,0.6-0.1,1.2-0.1,1.8h0.1v356.5c20.5,16.5,23.6,46.5,7.1,67
		C85.8,495.8,72.2,502.3,57.8,502.3z"/>
	<rect x="26.2" y="85.6" class="st1" width="57.4" height="2.2"/>
	<rect x="26.2" y="132.5" class="st1" width="57.4" height="2.2"/>
	<rect x="26.2" y="95.2" class="st1" width="8.5" height="2.2"/>
	<rect x="26.2" y="104.5" class="st1" width="8.5" height="2.2"/>
	<rect x="26.2" y="113.8" class="st1" width="8.5" height="2.2"/>
	<rect x="26.2" y="123.2" class="st1" width="8.5" height="2.2"/>
	<rect x="26.2" y="179.2" class="st1" width="57.4" height="2.2"/>
	<rect x="26.2" y="141.9" class="st1" width="8.5" height="2.2"/>
	<rect x="26.2" y="151.2" class="st1" width="8.5" height="2.2"/>
	<rect x="26.2" y="160.5" class="st1" width="8.5" height="2.2"/>
	<rect x="26.2" y="169.9" class="st1" width="8.5" height="2.2"/>
	<rect x="26.2" y="225.9" class="st1" width="57.4" height="2.2"/>
	<rect x="26.2" y="188.5" class="st1" width="8.5" height="2.2"/>
	<rect x="26.2" y="197.9" class="st1" width="8.5" height="2.2"/>
	<rect x="26.2" y="207.2" class="st1" width="8.5" height="2.2"/>
	<rect x="26.2" y="216.5" class="st1" width="8.5" height="2.2"/>
	<rect x="26.2" y="272.5" class="st1" width="57.4" height="2.2"/>
	<rect x="26.2" y="235.2" class="st1" width="8.5" height="2.2"/>
	<rect x="26.2" y="244.5" class="st1" width="8.5" height="2.2"/>
	<rect x="26.2" y="253.9" class="st1" width="8.5" height="2.2"/>
	<rect x="26.2" y="263.2" class="st1" width="8.5" height="2.2"/>
	<rect x="26.2" y="319.2" class="st1" width="57.4" height="2.2"/>
	<rect x="26.2" y="281.9" class="st1" width="8.5" height="2.2"/>
	<rect x="26.2" y="291.2" class="st1" width="8.5" height="2.2"/>
	<rect x="26.2" y="300.6" class="st1" width="8.5" height="2.2"/>
	<rect x="26.2" y="309.9" class="st1" width="8.5" height="2.2"/>
	<rect x="26.2" y="365.9" class="st1" width="57.4" height="2.2"/>
	<rect x="26.2" y="328.6" class="st1" width="8.5" height="2.2"/>
	<rect x="26.2" y="337.9" class="st1" width="8.5" height="2.2"/>
	<rect x="26.2" y="347.2" class="st1" width="8.5" height="2.2"/>
	<rect x="26.2" y="356.6" class="st1" width="8.5" height="2.2"/>
	<rect x="26.2" y="412.6" class="st1" width="57.4" height="2.2"/>
	<rect x="26.2" y="375.2" class="st1" width="8.5" height="2.2"/>
	<rect x="26.2" y="384.6" class="st1" width="8.5" height="2.2"/>
	<rect x="26.2" y="393.9" class="st1" width="8.5" height="2.2"/>
	<rect x="26.2" y="403.2" class="st1" width="8.5" height="2.2"/>
</g>
</svg>
