<?xml version="1.0" encoding="utf-8"?>
<!-- Generator: Adobe Illustrator 22.1.0, SVG Export Plug-In . SVG Version: 6.00 Build 0)  -->
<svg version="1.1" id="Layer_1" xmlns="http://www.w3.org/2000/svg" xmlns:xlink="http://www.w3.org/1999/xlink" x="0px" y="0px"
	 viewBox="0 0 500 100" style="enable-background:new 0 0 500 100;" xml:space="preserve">
<style type="text/css">
	.st0{fill:#127486;}
	.st1{fill:url(#SVGID_1_);}
	.st2{fill:#FFFFFF;}
	.st3{fill:url(#SVGID_2_);}
	.st4{opacity:0.46;fill:#6D6D6D;}
	.st5{fill:url(#SVGID_3_);}
	.st6{opacity:0.84;fill:#6D6D6D;}
	.st7{fill:#6D6D6D;}
	.st8{font-family:'MyriadPro-Regular';}
	.st9{font-size:12px;}
</style>
<title>Toggle_sprite</title>
<path class="st0" d="M31.5,34.8h38.9c8.9,0,16.2,7.3,16.2,16.2v0c0,8.9-7.3,16.2-16.2,16.2H31.5c-8.9,0-16.2-7.3-16.2-16.2v0
	C15.3,42.1,22.6,34.8,31.5,34.8z"/>
<radialGradient id="SVGID_1_" cx="2235.7078" cy="-456.6736" r="9.69" gradientTransform="matrix(2.86 0 0 -2.86 -6338.8398 -1254.9214)" gradientUnits="userSpaceOnUse">
	<stop  offset="0.1" style="stop-color:#00ADC2"/>
	<stop  offset="1" style="stop-color:#0F8497"/>
</radialGradient>
<path class="st1" d="M28.8,33h38.9c8.9,0,16.2,7.3,16.2,16.2l0,0c0,8.9-7.3,16.2-16.2,16.2H28.8c-8.9,0-16.2-7.3-16.2-16.2l0,0
	C12.6,40.2,19.8,33,28.8,33z"/>
<circle class="st2" cx="28.9" cy="49.2" r="14.4"/>
<path class="st0" d="M131.5,34.6h38.9c8.9,0,16.2,7.3,16.2,16.2l0,0c0,8.9-7.3,16.2-16.2,16.2h-38.9c-8.9,0-16.2-7.3-16.2-16.2l0,0
	C115.3,41.9,122.5,34.6,131.5,34.6z"/>
<circle class="st2" cx="135.8" cy="49" r="14.4"/>
<path class="st0" d="M231.5,34.8h38.9c8.9,0,16.2,7.3,16.2,16.2v0c0,8.9-7.3,16.2-16.2,16.2h-38.9c-8.9,0-16.2-7.3-16.2-16.2v0
	C215.3,42.1,222.5,34.8,231.5,34.8z"/>
<radialGradient id="SVGID_2_" cx="2235.46" cy="-515.8555" r="9.69" gradientTransform="matrix(1 0 0 -1 0 101.4646)" gradientUnits="userSpaceOnUse">
	<stop  offset="0.1" style="stop-color:#00ADC2"/>
	<stop  offset="1" style="stop-color:#0F8497"/>
</radialGradient>
<path class="st3" d="M228.7,33h38.9c8.9,0,16.2,7.3,16.2,16.2l0,0c0,8.9-7.3,16.2-16.2,16.2h-38.9c-8.9,0-16.2-7.3-16.2-16.2l0,0
	C212.5,40.2,219.7,33,228.7,33z"/>
<path class="st4" d="M228.7,34h38.9c8.9,0,16.2,7.3,16.2,16.2l0,0c0,8.9-7.3,16.2-16.2,16.2h-38.9c-8.9,0-16.2-7.3-16.2-16.2l0,0
	C212.5,41.2,219.7,34,228.7,34z"/>
<circle class="st2" cx="248.8" cy="49.2" r="14.4"/>
<path class="st0" d="M331.5,34.7h38.9c8.9,0,16.2,7.3,16.2,16.2l0,0c0,8.9-7.3,16.2-16.2,16.2h-38.9c-8.9,0-16.2-7.3-16.2-16.2l0,0
	C315.3,42,322.5,34.7,331.5,34.7z"/>
<radialGradient id="SVGID_3_" cx="2270.46" cy="-515.8254" r="9.69" gradientTransform="matrix(1 0 0 -1 0 101.4646)" gradientUnits="userSpaceOnUse">
	<stop  offset="0.1" style="stop-color:#00ADC2"/>
	<stop  offset="1" style="stop-color:#0F8497"/>
</radialGradient>
<path class="st5" d="M328.7,32.8h38.9c8.9,0,16.2,7.3,16.2,16.2l0,0c0,8.9-7.3,16.2-16.2,16.2h-38.9c-8.9,0-16.2-7.3-16.2-16.2l0,0
	C312.5,40.1,319.7,32.8,328.7,32.8z"/>
<path class="st6" d="M329.7,34h38.9c8.9,0,16.2,7.3,16.2,16.2l0,0c0,8.9-7.3,16.2-16.2,16.2h-38.9c-8.9,0-16.2-7.3-16.2-16.2l0,0
	C313.5,41.2,320.7,34,329.7,34z"/>
<circle class="st2" cx="363.8" cy="49" r="14.4"/>
<path class="st0" d="M431.5,34.8h38.9c8.9,0,16.2,7.3,16.2,16.2v0c0,8.9-7.3,16.2-16.2,16.2h-38.9c-8.9,0-16.2-7.3-16.2-16.2v0
	C415.3,42.1,422.5,34.8,431.5,34.8z"/>
<path class="st7" d="M431.7,35h38.9c8.9,0,16.2,7.3,16.2,16.2l0,0c0,8.9-7.3,16.2-16.2,16.2h-38.9c-8.9,0-16.2-7.3-16.2-16.2l0,0
	C415.5,42.2,422.7,35,431.7,35z"/>
<circle class="st2" cx="466.8" cy="49.2" r="14.4"/>
<text transform="matrix(1 0 0 1 53 54.4646)" class="st2 st8 st9">ON</text>
<text transform="matrix(1 0 0 1 423 55.4646)" class="st2 st8 st9">OFF</text>
</svg>
