<?xml version="1.0" encoding="utf-8"?>
<!-- Generator: Adobe Illustrator 23.0.0, SVG Export Plug-In . SVG Version: 6.00 Build 0)  -->
<svg version="1.1" id="Layer_1" xmlns="http://www.w3.org/2000/svg" xmlns:xlink="http://www.w3.org/1999/xlink" x="0px" y="0px"
	 viewBox="0 0 500 100" style="enable-background:new 0 0 500 100;" xml:space="preserve">
<style type="text/css">
	.st0{fill:none;}
	.st1{fill:url(#SVGID_1_);}
	.st2{fill:#FFFFFF;}
	.st3{fill:url(#SVGID_2_);}
	.st4{fill:url(#SVGID_3_);}
	.st5{opacity:0.1;}
	.st6{fill:url(#SVGID_4_);}
	.st7{opacity:0.2;}
	.st8{fill:url(#SVGID_5_);}
	.st9{opacity:0.4;}
</style>
<g>
	<rect y="0" class="st0" width="100" height="100"/>
	<g>

			<radialGradient id="SVGID_1_" cx="47.0365" cy="47.9589" r="34.1056" gradientTransform="matrix(1 0 0 0.988 0 2.5754)" gradientUnits="userSpaceOnUse">
			<stop  offset="0.2277" style="stop-color:#00ADC2"/>
			<stop  offset="1" style="stop-color:#0F8497"/>
		</radialGradient>
		<path class="st1" d="M29.2,33.2h36.3c8.8,0,15.9,7.2,15.9,16l0,0c0,8.8-7.1,16-15.9,16H29.2c-8.8,0-15.9-7.2-15.9-16l0,0
			C13.3,40.3,20.4,33.2,29.2,33.2z"/>
		<circle class="st2" cx="65.9" cy="49.2" r="13.5"/>
	</g>
</g>
<g>
	<rect x="100" y="0" class="st0" width="100" height="100"/>
	<g>

			<radialGradient id="SVGID_2_" cx="147.0365" cy="47.9589" r="34.1056" gradientTransform="matrix(1 0 0 0.988 0 2.5754)" gradientUnits="userSpaceOnUse">
			<stop  offset="0.2277" style="stop-color:#00ADC2"/>
			<stop  offset="1" style="stop-color:#0F8497"/>
		</radialGradient>
		<path class="st3" d="M129.2,33.2h36.3c8.8,0,15.9,7.2,15.9,16l0,0c0,8.8-7.1,16-15.9,16h-36.3c-8.8,0-15.9-7.2-15.9-16l0,0
			C113.3,40.3,120.4,33.2,129.2,33.2z"/>
		<circle class="st2" cx="155" cy="49.2" r="13.5"/>
	</g>
</g>
<g>
	<rect x="200" y="0" class="st0" width="100" height="100"/>
	<g>

			<radialGradient id="SVGID_3_" cx="247.0365" cy="47.9589" r="34.1056" gradientTransform="matrix(1 0 0 0.988 0 2.5754)" gradientUnits="userSpaceOnUse">
			<stop  offset="0.2277" style="stop-color:#00ADC2"/>
			<stop  offset="1" style="stop-color:#0F8497"/>
		</radialGradient>
		<path class="st4" d="M229.2,33.2h36.3c8.8,0,15.9,7.2,15.9,16l0,0c0,8.8-7.1,16-15.9,16h-36.3c-8.8,0-15.9-7.2-15.9-16l0,0
			C213.3,40.3,220.4,33.2,229.2,33.2z"/>
		<path class="st5" d="M229.2,33.2h36.3c8.8,0,15.9,7.2,15.9,16l0,0c0,8.8-7.1,16-15.9,16h-36.3c-8.8,0-15.9-7.2-15.9-16l0,0
			C213.3,40.3,220.4,33.2,229.2,33.2z"/>
		<circle class="st2" cx="248" cy="49.2" r="13.5"/>
	</g>
</g>
<g>
	<rect x="300" y="0" class="st0" width="100" height="100"/>
	<g>

			<radialGradient id="SVGID_4_" cx="347.0365" cy="47.9589" r="34.1056" gradientTransform="matrix(1 0 0 0.988 0 2.5754)" gradientUnits="userSpaceOnUse">
			<stop  offset="0.2277" style="stop-color:#00ADC2"/>
			<stop  offset="1" style="stop-color:#0F8497"/>
		</radialGradient>
		<path class="st6" d="M329.2,33.2h36.3c8.8,0,15.9,7.2,15.9,16l0,0c0,8.8-7.1,16-15.9,16h-36.3c-8.8,0-15.9-7.2-15.9-16l0,0
			C313.3,40.3,320.4,33.2,329.2,33.2z"/>
		<path class="st7" d="M329.2,33.2h36.3c8.8,0,15.9,7.2,15.9,16l0,0c0,8.8-7.1,16-15.9,16h-36.3c-8.8,0-15.9-7.2-15.9-16l0,0
			C313.3,40.3,320.4,33.2,329.2,33.2z"/>
		<circle class="st2" cx="341" cy="49.2" r="13.5"/>
	</g>
</g>
<g>
	<rect x="400" y="0" class="st0" width="100" height="100"/>
	<g>

			<radialGradient id="SVGID_5_" cx="447.0365" cy="47.9589" r="34.1056" gradientTransform="matrix(1 0 0 0.988 0 2.5754)" gradientUnits="userSpaceOnUse">
			<stop  offset="0.2277" style="stop-color:#00ADC2"/>
			<stop  offset="1" style="stop-color:#0F8497"/>
		</radialGradient>
		<path class="st8" d="M429.2,33.2h36.3c8.8,0,15.9,7.2,15.9,16l0,0c0,8.8-7.1,16-15.9,16h-36.3c-8.8,0-15.9-7.2-15.9-16l0,0
			C413.3,40.3,420.4,33.2,429.2,33.2z"/>
		<path class="st9" d="M429.2,33.2h36.3c8.8,0,15.9,7.2,15.9,16l0,0c0,8.8-7.1,16-15.9,16h-36.3c-8.8,0-15.9-7.2-15.9-16l0,0
			C413.3,40.3,420.4,33.2,429.2,33.2z"/>
		<circle class="st2" cx="429.4" cy="49.2" r="13.5"/>
	</g>
</g>
</svg>
